M48
;Layer_Color=6321
;FILE_FORMAT=2:5
INCH,LZ
;TYPE=PLATED
T1F00S00C0.02362
T2F00S00C0.03000
T3F00S00C0.03150
T5F00S00C0.03200
T6F00S00C0.03272
T7F00S00C0.03543
T8F00S00C0.03600
T9F00S00C0.03937
T10F00S00C0.04000
T11F00S00C0.04500
%
T01
X04155Y0432
X04625
T02
X0112685Y0351
X0173315Y0351
X039Y04325
Y04525
X04735Y0429
X04835
T03
X0316Y0307949
X03835
X04495
X01255Y03795
Y0399185
X0316Y03485
X03835
X04495
X04045Y0433
Y0453
X03735
Y0433
T05
X03765Y0486
X03845
X03925
T06
X0336Y04895
X0351
T07
X03355Y03425
X034491
X0354319
X0403
X0412409
X0421819
X046809Y0343
X04775
X0486909
X0305Y0486
X0295
X0285
X0179Y04855
X0169
X0159
X0129
X0119
X0109
T08
X01515Y0363
Y04035
X01705Y04025
Y0362
X0315Y0486
X0189Y04855
X0139
T09
X03315Y0372657
Y03825
X03985
Y0372657
X04635
Y03825
T10
X0121Y04215
X0146
Y04615
X0121
X0171
Y04215
X0324Y04465
X0343685
X03585Y0406
Y0366
X04255Y0365
Y0405
X04335Y04505
Y04605
X04915Y0405
Y0365
X04335Y04705
T11
X01905Y0285
Y0295
Y0305
X02905
Y0295
Y0285
Y0315
Y0325
Y0335
Y0345
Y0355
Y0365
Y0375
Y0385
Y0395
Y0405
Y0415
Y0425
X01905
Y0415
Y0405
Y0395
Y0385
Y0375
Y0365
Y0355
Y0345
Y0335
Y0325
Y0315
M30
