G04*
G04 #@! TF.GenerationSoftware,Altium Limited,CircuitMaker,2.0.3 (2.0.3.51)*
G04*
G04 Layer_Color=15132400*
%FSLAX23Y23*%
%MOIN*%
G70*
G04*
G04 #@! TF.SameCoordinates,35AC13BF-EB10-43E2-832D-F6A8B62018A4*
G04*
G04*
G04 #@! TF.FilePolarity,Positive*
G04*
G01*
G75*
%ADD10C,0.008*%
%ADD11C,0.020*%
%ADD12C,0.010*%
%ADD13C,0.010*%
%ADD14C,0.008*%
G36*
X4840Y3179D02*
X4840Y3179D01*
X4839Y3179D01*
X4839Y3176D01*
X4838Y3176D01*
X4838Y3174D01*
X4837Y3174D01*
X4837Y3171D01*
X4837Y3171D01*
X4837Y3169D01*
X4836Y3169D01*
X4836Y3165D01*
X4835Y3165D01*
X4835Y3164D01*
X4834Y3164D01*
X4834Y3160D01*
X4833Y3160D01*
X4833Y3156D01*
X4832Y3156D01*
X4832Y3153D01*
X4832Y3153D01*
X4832Y3149D01*
X4831Y3149D01*
X4831Y3146D01*
X4830Y3146D01*
X4830Y3143D01*
X4829Y3143D01*
X4829Y3138D01*
X4828Y3138D01*
X4828Y3135D01*
X4828Y3135D01*
X4828Y3130D01*
X4827Y3130D01*
X4827Y3124D01*
X4826Y3124D01*
X4826Y3117D01*
X4825Y3117D01*
X4825Y3102D01*
X4826Y3102D01*
X4826Y3101D01*
X4834Y3101D01*
X4834Y3100D01*
X4841Y3100D01*
X4841Y3101D01*
X4853Y3101D01*
X4853Y3102D01*
X4857Y3102D01*
X4857Y3103D01*
X4863Y3103D01*
X4863Y3102D01*
X4864Y3102D01*
X4864Y3101D01*
X4865Y3101D01*
X4865Y3100D01*
X4867Y3100D01*
X4867Y3099D01*
X4868Y3099D01*
X4868Y3098D01*
X4869Y3098D01*
X4869Y3096D01*
X4871Y3096D01*
X4871Y3094D01*
X4872Y3094D01*
X4872Y3094D01*
X4872Y3094D01*
X4872Y3093D01*
X4873Y3093D01*
X4873Y3092D01*
X4874Y3092D01*
X4874Y3091D01*
X4875Y3091D01*
X4875Y3090D01*
X4877Y3090D01*
X4877Y3091D01*
X4877Y3091D01*
X4877Y3093D01*
X4877Y3093D01*
X4877Y3095D01*
X4878Y3095D01*
X4878Y3096D01*
X4879Y3096D01*
X4879Y3097D01*
X4880Y3097D01*
X4880Y3098D01*
X4881Y3098D01*
X4881Y3099D01*
X4882Y3099D01*
X4882Y3099D01*
X4884Y3099D01*
X4884Y3098D01*
X4883Y3098D01*
X4883Y3097D01*
X4882Y3097D01*
X4882Y3095D01*
X4881Y3095D01*
X4881Y3089D01*
X4883Y3089D01*
X4883Y3090D01*
X4884Y3090D01*
X4884Y3090D01*
X4885Y3090D01*
X4885Y3091D01*
X4886Y3091D01*
X4886Y3092D01*
X4886Y3092D01*
X4886Y3091D01*
X4887Y3091D01*
X4887Y3090D01*
X4889Y3090D01*
X4889Y3090D01*
X4892Y3090D01*
X4892Y3090D01*
X4894Y3090D01*
X4894Y3091D01*
X4894Y3091D01*
X4894Y3092D01*
X4895Y3092D01*
X4895Y3091D01*
X4896Y3091D01*
X4896Y3090D01*
X4897Y3090D01*
X4897Y3089D01*
X4899Y3089D01*
X4899Y3094D01*
X4899Y3094D01*
X4899Y3096D01*
X4898Y3096D01*
X4898Y3097D01*
X4897Y3097D01*
X4897Y3099D01*
X4899Y3099D01*
X4899Y3099D01*
X4899Y3099D01*
X4899Y3098D01*
X4901Y3098D01*
X4901Y3097D01*
X4902Y3097D01*
X4902Y3096D01*
X4903Y3096D01*
X4903Y3095D01*
X4903Y3095D01*
X4903Y3091D01*
X4904Y3091D01*
X4904Y3090D01*
X4905Y3090D01*
X4905Y3091D01*
X4907Y3091D01*
X4907Y3092D01*
X4908Y3092D01*
X4908Y3093D01*
X4908Y3093D01*
X4908Y3094D01*
X4909Y3094D01*
X4909Y3094D01*
X4910Y3094D01*
X4910Y3095D01*
X4911Y3095D01*
X4911Y3096D01*
X4912Y3096D01*
X4912Y3097D01*
X4912Y3097D01*
X4912Y3099D01*
X4914Y3099D01*
X4914Y3100D01*
X4915Y3100D01*
X4915Y3101D01*
X4916Y3101D01*
X4916Y3102D01*
X4917Y3102D01*
X4917Y3103D01*
X4923Y3103D01*
X4923Y3102D01*
X4928Y3102D01*
X4928Y3101D01*
X4939Y3101D01*
X4939Y3100D01*
X4949Y3100D01*
X4949Y3101D01*
X4956Y3101D01*
X4956Y3115D01*
X4955Y3115D01*
X4955Y3121D01*
X4954Y3121D01*
X4954Y3128D01*
X4953Y3128D01*
X4953Y3134D01*
X4952Y3134D01*
X4952Y3138D01*
X4952Y3138D01*
X4952Y3142D01*
X4951Y3142D01*
X4951Y3146D01*
X4950Y3146D01*
X4950Y3148D01*
X4949Y3148D01*
X4949Y3152D01*
X4948Y3152D01*
X4948Y3155D01*
X4948Y3155D01*
X4948Y3158D01*
X4947Y3158D01*
X4947Y3161D01*
X4946Y3161D01*
X4946Y3164D01*
X4945Y3164D01*
X4945Y3167D01*
X4944Y3167D01*
X4944Y3170D01*
X4943Y3170D01*
X4943Y3173D01*
X4943Y3173D01*
X4943Y3175D01*
X4942Y3175D01*
X4942Y3177D01*
X4941Y3177D01*
X4941Y3180D01*
X4940Y3180D01*
X4940Y3183D01*
X4942Y3183D01*
X4942Y3181D01*
X4943Y3181D01*
X4943Y3179D01*
X4943Y3179D01*
X4943Y3177D01*
X4944Y3177D01*
X4944Y3174D01*
X4945Y3174D01*
X4945Y3173D01*
X4946Y3173D01*
X4946Y3171D01*
X4947Y3171D01*
X4947Y3169D01*
X4948Y3169D01*
X4948Y3167D01*
X4948Y3167D01*
X4948Y3165D01*
X4949Y3165D01*
X4949Y3163D01*
X4950Y3163D01*
X4950Y3161D01*
X4951Y3161D01*
X4951Y3159D01*
X4952Y3159D01*
X4952Y3156D01*
X4952Y3156D01*
X4952Y3155D01*
X4953Y3155D01*
X4953Y3152D01*
X4954Y3152D01*
X4954Y3150D01*
X4955Y3150D01*
X4955Y3148D01*
X4956Y3148D01*
X4956Y3145D01*
X4957Y3145D01*
X4957Y3143D01*
X4957Y3143D01*
X4957Y3141D01*
X4958Y3141D01*
X4958Y3138D01*
X4959Y3138D01*
X4959Y3136D01*
X4960Y3136D01*
X4960Y3133D01*
X4961Y3133D01*
X4961Y3130D01*
X4961Y3130D01*
X4961Y3128D01*
X4962Y3128D01*
X4962Y3124D01*
X4963Y3124D01*
X4963Y3122D01*
X4964Y3122D01*
X4964Y3119D01*
X4965Y3119D01*
X4965Y3116D01*
X4965Y3116D01*
X4965Y3113D01*
X4966Y3113D01*
X4966Y3110D01*
X4967Y3110D01*
X4967Y3107D01*
X4968Y3107D01*
X4968Y3103D01*
X4969Y3103D01*
X4969Y3099D01*
X4968Y3099D01*
X4968Y3097D01*
X4967Y3097D01*
X4967Y3096D01*
X4966Y3096D01*
X4966Y3095D01*
X4965Y3095D01*
X4965Y3094D01*
X4964Y3094D01*
X4964Y3094D01*
X4962Y3094D01*
X4962Y3093D01*
X4961Y3093D01*
X4961Y3092D01*
X4961Y3092D01*
X4961Y3091D01*
X4960Y3091D01*
X4960Y3090D01*
X4957Y3090D01*
X4957Y3091D01*
X4957Y3091D01*
X4957Y3092D01*
X4954Y3092D01*
X4954Y3093D01*
X4952Y3093D01*
X4952Y3094D01*
X4930Y3094D01*
X4930Y3094D01*
X4919Y3094D01*
X4919Y3094D01*
X4917Y3094D01*
X4917Y3093D01*
X4917Y3093D01*
X4917Y3092D01*
X4916Y3092D01*
X4916Y3091D01*
X4915Y3091D01*
X4915Y3090D01*
X4914Y3090D01*
X4914Y3088D01*
X4913Y3088D01*
X4913Y3086D01*
X4912Y3086D01*
X4912Y3085D01*
X4912Y3085D01*
X4912Y3083D01*
X4915Y3083D01*
X4915Y3084D01*
X4917Y3084D01*
X4917Y3085D01*
X4918Y3085D01*
X4918Y3085D01*
X4920Y3085D01*
X4920Y3086D01*
X4921Y3086D01*
X4921Y3087D01*
X4923Y3087D01*
X4923Y3088D01*
X4925Y3088D01*
X4925Y3089D01*
X4926Y3089D01*
X4926Y3090D01*
X4931Y3090D01*
X4931Y3089D01*
X4934Y3089D01*
X4934Y3088D01*
X4936Y3088D01*
X4936Y3087D01*
X4939Y3087D01*
X4939Y3086D01*
X4941Y3086D01*
X4941Y3085D01*
X4944Y3085D01*
X4944Y3085D01*
X4948Y3085D01*
X4948Y3084D01*
X4950Y3084D01*
X4950Y3083D01*
X4955Y3083D01*
X4955Y3082D01*
X4957Y3082D01*
X4957Y3081D01*
X4961Y3081D01*
X4961Y3081D01*
X4965Y3081D01*
X4965Y3080D01*
X4967Y3080D01*
X4967Y3079D01*
X4971Y3079D01*
X4971Y3078D01*
X4974Y3078D01*
X4974Y3077D01*
X4977Y3077D01*
X4977Y3077D01*
X4981Y3077D01*
X4981Y3076D01*
X4983Y3076D01*
X4983Y3094D01*
X4983Y3094D01*
X4983Y3102D01*
X4982Y3102D01*
X4982Y3109D01*
X4981Y3109D01*
X4981Y3114D01*
X4980Y3114D01*
X4980Y3119D01*
X4979Y3119D01*
X4979Y3124D01*
X4979Y3124D01*
X4979Y3127D01*
X4978Y3127D01*
X4978Y3131D01*
X4977Y3131D01*
X4977Y3134D01*
X4976Y3134D01*
X4976Y3137D01*
X4975Y3137D01*
X4975Y3141D01*
X4974Y3141D01*
X4974Y3143D01*
X4974Y3143D01*
X4974Y3146D01*
X4973Y3146D01*
X4973Y3148D01*
X4972Y3148D01*
X4972Y3150D01*
X4971Y3150D01*
X4971Y3153D01*
X4970Y3153D01*
X4970Y3156D01*
X4970Y3156D01*
X4970Y3157D01*
X4969Y3157D01*
X4969Y3160D01*
X4968Y3160D01*
X4968Y3161D01*
X4967Y3161D01*
X4967Y3164D01*
X4966Y3164D01*
X4966Y3166D01*
X4965Y3166D01*
X4965Y3168D01*
X4965Y3168D01*
X4965Y3170D01*
X4964Y3170D01*
X4964Y3171D01*
X4963Y3171D01*
X4963Y3173D01*
X4962Y3173D01*
X4962Y3174D01*
X4961Y3174D01*
X4961Y3176D01*
X4961Y3176D01*
X4961Y3178D01*
X4960Y3178D01*
X4960Y3179D01*
X4961Y3179D01*
X4961Y3179D01*
X4961Y3179D01*
X4961Y3178D01*
X4962Y3178D01*
X4962Y3176D01*
X4963Y3176D01*
X4963Y3175D01*
X4964Y3175D01*
X4964Y3174D01*
X4965Y3174D01*
X4965Y3172D01*
X4965Y3172D01*
X4965Y3171D01*
X4966Y3171D01*
X4966Y3170D01*
X4967Y3170D01*
X4967Y3168D01*
X4968Y3168D01*
X4968Y3167D01*
X4969Y3167D01*
X4969Y3165D01*
X4970Y3165D01*
X4970Y3164D01*
X4970Y3164D01*
X4970Y3162D01*
X4971Y3162D01*
X4971Y3161D01*
X4972Y3161D01*
X4972Y3159D01*
X4973Y3159D01*
X4973Y3157D01*
X4974Y3157D01*
X4974Y3156D01*
X4974Y3156D01*
X4974Y3154D01*
X4975Y3154D01*
X4975Y3152D01*
X4976Y3152D01*
X4976Y3151D01*
X4977Y3151D01*
X4977Y3148D01*
X4978Y3148D01*
X4978Y3147D01*
X4979Y3147D01*
X4979Y3145D01*
X4979Y3145D01*
X4979Y3143D01*
X4980Y3143D01*
X4980Y3140D01*
X4981Y3140D01*
X4981Y3139D01*
X4982Y3139D01*
X4982Y3136D01*
X4983Y3136D01*
X4983Y3134D01*
X4983Y3134D01*
X4983Y3132D01*
X4984Y3132D01*
X4984Y3129D01*
X4985Y3129D01*
X4985Y3128D01*
X4986Y3128D01*
X4986Y3125D01*
X4987Y3125D01*
X4987Y3122D01*
X4988Y3122D01*
X4988Y3120D01*
X4988Y3120D01*
X4988Y3116D01*
X4989Y3116D01*
X4989Y3114D01*
X4990Y3114D01*
X4990Y3111D01*
X4991Y3111D01*
X4991Y3107D01*
X4992Y3107D01*
X4992Y3104D01*
X4992Y3104D01*
X4992Y3100D01*
X4993Y3100D01*
X4993Y3096D01*
X4994Y3096D01*
X4994Y3090D01*
X4995Y3090D01*
X4995Y3083D01*
X4996Y3083D01*
X4996Y3081D01*
X4996Y3081D01*
X4996Y3078D01*
X4997Y3078D01*
X4997Y3077D01*
X4998Y3077D01*
X4998Y3075D01*
X4997Y3075D01*
X4997Y3074D01*
X4996Y3074D01*
X4996Y3073D01*
X4996Y3073D01*
X4996Y3072D01*
X4995Y3072D01*
X4995Y3072D01*
X4994Y3072D01*
X4994Y3071D01*
X4993Y3071D01*
X4993Y3070D01*
X4992Y3070D01*
X4992Y3069D01*
X4991Y3069D01*
X4991Y3068D01*
X4990Y3068D01*
X4990Y3068D01*
X4989Y3068D01*
X4989Y3067D01*
X4988Y3067D01*
X4988Y3066D01*
X4988Y3066D01*
X4988Y3065D01*
X4987Y3065D01*
X4987Y3064D01*
X4986Y3064D01*
X4986Y3063D01*
X4985Y3063D01*
X4985Y3063D01*
X4983Y3063D01*
X4983Y3063D01*
X4981Y3063D01*
X4981Y3064D01*
X4980Y3064D01*
X4980Y3065D01*
X4979Y3065D01*
X4979Y3066D01*
X4976Y3066D01*
X4976Y3067D01*
X4975Y3067D01*
X4975Y3068D01*
X4973Y3068D01*
X4973Y3068D01*
X4971Y3068D01*
X4971Y3069D01*
X4970Y3069D01*
X4970Y3070D01*
X4968Y3070D01*
X4968Y3071D01*
X4966Y3071D01*
X4966Y3072D01*
X4964Y3072D01*
X4964Y3072D01*
X4961Y3072D01*
X4961Y3073D01*
X4961Y3073D01*
X4961Y3074D01*
X4957Y3074D01*
X4957Y3075D01*
X4955Y3075D01*
X4955Y3076D01*
X4952Y3076D01*
X4952Y3077D01*
X4948Y3077D01*
X4948Y3077D01*
X4945Y3077D01*
X4945Y3078D01*
X4941Y3078D01*
X4941Y3079D01*
X4930Y3079D01*
X4930Y3080D01*
X4929Y3080D01*
X4929Y3079D01*
X4921Y3079D01*
X4921Y3078D01*
X4918Y3078D01*
X4918Y3077D01*
X4917Y3077D01*
X4917Y3077D01*
X4916Y3077D01*
X4916Y3076D01*
X4914Y3076D01*
X4914Y3075D01*
X4913Y3075D01*
X4913Y3074D01*
X4912Y3074D01*
X4912Y3072D01*
X4914Y3072D01*
X4914Y3072D01*
X4917Y3072D01*
X4917Y3071D01*
X4921Y3071D01*
X4921Y3070D01*
X4932Y3070D01*
X4932Y3071D01*
X4939Y3071D01*
X4939Y3070D01*
X4940Y3070D01*
X4940Y3069D01*
X4941Y3069D01*
X4941Y3068D01*
X4942Y3068D01*
X4942Y3068D01*
X4943Y3068D01*
X4943Y3067D01*
X4943Y3067D01*
X4943Y3066D01*
X4944Y3066D01*
X4944Y3064D01*
X4945Y3064D01*
X4945Y3063D01*
X4946Y3063D01*
X4946Y3063D01*
X4947Y3063D01*
X4947Y3062D01*
X4948Y3062D01*
X4948Y3061D01*
X4948Y3061D01*
X4948Y3060D01*
X4950Y3060D01*
X4950Y3059D01*
X4951Y3059D01*
X4951Y3059D01*
X4952Y3059D01*
X4952Y3058D01*
X4952Y3058D01*
X4952Y3057D01*
X4953Y3057D01*
X4953Y3056D01*
X4954Y3056D01*
X4954Y3055D01*
X4955Y3055D01*
X4955Y3054D01*
X4956Y3054D01*
X4956Y3054D01*
X4957Y3054D01*
X4957Y3053D01*
X4957Y3053D01*
X4957Y3052D01*
X4958Y3052D01*
X4958Y3051D01*
X4959Y3051D01*
X4959Y3050D01*
X4961Y3050D01*
X4961Y3050D01*
X4961Y3050D01*
X4961Y3049D01*
X4962Y3049D01*
X4962Y3048D01*
X4963Y3048D01*
X4963Y3047D01*
X4964Y3047D01*
X4964Y3046D01*
X4965Y3046D01*
X4965Y3046D01*
X4966Y3046D01*
X4966Y3045D01*
X4967Y3045D01*
X4967Y3044D01*
X4968Y3044D01*
X4968Y3043D01*
X4969Y3043D01*
X4969Y3042D01*
X4970Y3042D01*
X4970Y3041D01*
X4971Y3041D01*
X4971Y3041D01*
X4972Y3041D01*
X4972Y3040D01*
X4973Y3040D01*
X4973Y3039D01*
X4974Y3039D01*
X4974Y3038D01*
X4975Y3038D01*
X4975Y3037D01*
X4976Y3037D01*
X4976Y3037D01*
X4977Y3037D01*
X4977Y3036D01*
X4979Y3036D01*
X4979Y3035D01*
X4979Y3035D01*
X4979Y3034D01*
X4981Y3034D01*
X4981Y3033D01*
X4982Y3033D01*
X4982Y3032D01*
X4983Y3032D01*
X4983Y3032D01*
X4984Y3032D01*
X4984Y3031D01*
X4985Y3031D01*
X4985Y3030D01*
X4987Y3030D01*
X4987Y3029D01*
X4988Y3029D01*
X4988Y3028D01*
X4989Y3028D01*
X4989Y3028D01*
X4990Y3028D01*
X4990Y3027D01*
X4991Y3027D01*
X4991Y3026D01*
X4992Y3026D01*
X4992Y3025D01*
X4993Y3025D01*
X4993Y3024D01*
X4995Y3024D01*
X4995Y3023D01*
X4996Y3023D01*
X4996Y3023D01*
X4997Y3023D01*
X4997Y3022D01*
X4999Y3022D01*
X4999Y3021D01*
X5001Y3021D01*
X5001Y3020D01*
X5004Y3020D01*
X5004Y3021D01*
X5005Y3021D01*
X5005Y3022D01*
X5008Y3022D01*
X5008Y3002D01*
X5007Y3002D01*
X5007Y2993D01*
X5006Y2993D01*
X5006Y2985D01*
X5005Y2985D01*
X5005Y2979D01*
X5005Y2979D01*
X5005Y2975D01*
X5004Y2975D01*
X5004Y2970D01*
X5003Y2970D01*
X5003Y2966D01*
X5002Y2966D01*
X5002Y2964D01*
X5001Y2964D01*
X5001Y2960D01*
X5001Y2960D01*
X5001Y2957D01*
X5000Y2957D01*
X5000Y2953D01*
X4999Y2953D01*
X4999Y2950D01*
X4998Y2950D01*
X4998Y2948D01*
X4997Y2948D01*
X4997Y2945D01*
X4996Y2945D01*
X4996Y2942D01*
X4996Y2942D01*
X4996Y2940D01*
X4995Y2940D01*
X4995Y2938D01*
X4994Y2938D01*
X4994Y2935D01*
X4993Y2935D01*
X4993Y2934D01*
X4992Y2934D01*
X4992Y2930D01*
X4992Y2930D01*
X4992Y2930D01*
X4991Y2930D01*
X4991Y2926D01*
X4990Y2926D01*
X4990Y2925D01*
X4989Y2925D01*
X4989Y2923D01*
X4988Y2923D01*
X4988Y2921D01*
X4988Y2921D01*
X4988Y2919D01*
X4987Y2919D01*
X4987Y2917D01*
X4986Y2917D01*
X4986Y2915D01*
X4985Y2915D01*
X4985Y2913D01*
X4984Y2913D01*
X4984Y2912D01*
X4983Y2912D01*
X4983Y2909D01*
X4983Y2909D01*
X4983Y2908D01*
X4982Y2908D01*
X4982Y2906D01*
X4981Y2906D01*
X4981Y2904D01*
X4980Y2904D01*
X4980Y2903D01*
X4979Y2903D01*
X4979Y2900D01*
X4979Y2900D01*
X4979Y2899D01*
X4978Y2899D01*
X4978Y2897D01*
X4977Y2897D01*
X4977Y2895D01*
X4976Y2895D01*
X4976Y2894D01*
X4975Y2894D01*
X4975Y2892D01*
X4974Y2892D01*
X4974Y2894D01*
X4974Y2894D01*
X4974Y2895D01*
X4975Y2895D01*
X4975Y2898D01*
X4976Y2898D01*
X4976Y2899D01*
X4977Y2899D01*
X4977Y2902D01*
X4978Y2902D01*
X4978Y2904D01*
X4979Y2904D01*
X4979Y2906D01*
X4979Y2906D01*
X4979Y2908D01*
X4980Y2908D01*
X4980Y2911D01*
X4981Y2911D01*
X4981Y2912D01*
X4982Y2912D01*
X4982Y2916D01*
X4983Y2916D01*
X4983Y2918D01*
X4983Y2918D01*
X4983Y2921D01*
X4984Y2921D01*
X4984Y2924D01*
X4985Y2924D01*
X4985Y2926D01*
X4986Y2926D01*
X4986Y2930D01*
X4987Y2930D01*
X4987Y2933D01*
X4988Y2933D01*
X4988Y2935D01*
X4988Y2935D01*
X4988Y2940D01*
X4989Y2940D01*
X4989Y2944D01*
X4990Y2944D01*
X4990Y2948D01*
X4991Y2948D01*
X4991Y2953D01*
X4992Y2953D01*
X4992Y2957D01*
X4992Y2957D01*
X4992Y2965D01*
X4993Y2965D01*
X4993Y2975D01*
X4994Y2975D01*
X4994Y2986D01*
X4995Y2986D01*
X4995Y3007D01*
X4994Y3007D01*
X4994Y3009D01*
X4993Y3009D01*
X4993Y3010D01*
X4992Y3010D01*
X4992Y3011D01*
X4992Y3011D01*
X4992Y3012D01*
X4991Y3012D01*
X4991Y3013D01*
X4990Y3013D01*
X4990Y3014D01*
X4989Y3014D01*
X4989Y3014D01*
X4988Y3014D01*
X4988Y3015D01*
X4988Y3015D01*
X4988Y3016D01*
X4987Y3016D01*
X4987Y3017D01*
X4986Y3017D01*
X4986Y3018D01*
X4985Y3018D01*
X4985Y3019D01*
X4984Y3019D01*
X4984Y3019D01*
X4983Y3019D01*
X4983Y3020D01*
X4982Y3020D01*
X4982Y3021D01*
X4981Y3021D01*
X4981Y3022D01*
X4980Y3022D01*
X4980Y3023D01*
X4979Y3023D01*
X4979Y3023D01*
X4979Y3023D01*
X4979Y3024D01*
X4978Y3024D01*
X4978Y3025D01*
X4977Y3025D01*
X4977Y3026D01*
X4975Y3026D01*
X4975Y3027D01*
X4974Y3027D01*
X4974Y3028D01*
X4974Y3028D01*
X4974Y3028D01*
X4973Y3028D01*
X4973Y3029D01*
X4972Y3029D01*
X4972Y3030D01*
X4971Y3030D01*
X4971Y3031D01*
X4970Y3031D01*
X4970Y3032D01*
X4970Y3032D01*
X4970Y3032D01*
X4968Y3032D01*
X4968Y3033D01*
X4967Y3033D01*
X4967Y3034D01*
X4966Y3034D01*
X4966Y3035D01*
X4965Y3035D01*
X4965Y3036D01*
X4965Y3036D01*
X4965Y3037D01*
X4964Y3037D01*
X4964Y3037D01*
X4962Y3037D01*
X4962Y3038D01*
X4961Y3038D01*
X4961Y3039D01*
X4961Y3039D01*
X4961Y3040D01*
X4960Y3040D01*
X4960Y3041D01*
X4959Y3041D01*
X4959Y3041D01*
X4957Y3041D01*
X4957Y3042D01*
X4957Y3042D01*
X4957Y3043D01*
X4956Y3043D01*
X4956Y3044D01*
X4955Y3044D01*
X4955Y3045D01*
X4954Y3045D01*
X4954Y3046D01*
X4952Y3046D01*
X4952Y3046D01*
X4952Y3046D01*
X4952Y3047D01*
X4951Y3047D01*
X4951Y3048D01*
X4949Y3048D01*
X4949Y3049D01*
X4948Y3049D01*
X4948Y3050D01*
X4948Y3050D01*
X4948Y3050D01*
X4947Y3050D01*
X4947Y3051D01*
X4945Y3051D01*
X4945Y3052D01*
X4944Y3052D01*
X4944Y3053D01*
X4943Y3053D01*
X4943Y3054D01*
X4943Y3054D01*
X4943Y3054D01*
X4941Y3054D01*
X4941Y3055D01*
X4940Y3055D01*
X4940Y3056D01*
X4939Y3056D01*
X4939Y3057D01*
X4939Y3057D01*
X4939Y3058D01*
X4938Y3058D01*
X4938Y3059D01*
X4937Y3059D01*
X4937Y3059D01*
X4935Y3059D01*
X4935Y3060D01*
X4934Y3060D01*
X4934Y3061D01*
X4934Y3061D01*
X4934Y3062D01*
X4930Y3062D01*
X4930Y3063D01*
X4926Y3063D01*
X4926Y3063D01*
X4917Y3063D01*
X4917Y3064D01*
X4914Y3064D01*
X4914Y3063D01*
X4915Y3063D01*
X4915Y3062D01*
X4916Y3062D01*
X4916Y3061D01*
X4917Y3061D01*
X4917Y3060D01*
X4918Y3060D01*
X4918Y3059D01*
X4919Y3059D01*
X4919Y3059D01*
X4920Y3059D01*
X4920Y3058D01*
X4921Y3058D01*
X4921Y3057D01*
X4921Y3057D01*
X4921Y3056D01*
X4922Y3056D01*
X4922Y3055D01*
X4923Y3055D01*
X4923Y3054D01*
X4924Y3054D01*
X4924Y3054D01*
X4926Y3054D01*
X4926Y3053D01*
X4926Y3053D01*
X4926Y3052D01*
X4927Y3052D01*
X4927Y3051D01*
X4928Y3051D01*
X4928Y3050D01*
X4929Y3050D01*
X4929Y3050D01*
X4930Y3050D01*
X4930Y3049D01*
X4931Y3049D01*
X4931Y3048D01*
X4932Y3048D01*
X4932Y3047D01*
X4933Y3047D01*
X4933Y3046D01*
X4934Y3046D01*
X4934Y3046D01*
X4935Y3046D01*
X4935Y3045D01*
X4936Y3045D01*
X4936Y3044D01*
X4939Y3044D01*
X4939Y3045D01*
X4941Y3045D01*
X4941Y3031D01*
X4942Y3031D01*
X4942Y3027D01*
X4941Y3027D01*
X4941Y2987D01*
X4940Y2987D01*
X4940Y2972D01*
X4939Y2972D01*
X4939Y2965D01*
X4939Y2965D01*
X4939Y2955D01*
X4938Y2955D01*
X4938Y2949D01*
X4937Y2949D01*
X4937Y2944D01*
X4936Y2944D01*
X4936Y2938D01*
X4935Y2938D01*
X4935Y2934D01*
X4934Y2934D01*
X4934Y2929D01*
X4934Y2929D01*
X4934Y2924D01*
X4933Y2924D01*
X4933Y2921D01*
X4932Y2921D01*
X4932Y2917D01*
X4931Y2917D01*
X4931Y2913D01*
X4930Y2913D01*
X4930Y2911D01*
X4930Y2911D01*
X4930Y2907D01*
X4929Y2907D01*
X4929Y2904D01*
X4928Y2904D01*
X4928Y2902D01*
X4927Y2902D01*
X4927Y2899D01*
X4926Y2899D01*
X4926Y2897D01*
X4926Y2897D01*
X4926Y2894D01*
X4925Y2894D01*
X4925Y2891D01*
X4924Y2891D01*
X4924Y2890D01*
X4923Y2890D01*
X4923Y2886D01*
X4922Y2886D01*
X4922Y2886D01*
X4921Y2886D01*
X4921Y2883D01*
X4921Y2883D01*
X4921Y2881D01*
X4920Y2881D01*
X4920Y2879D01*
X4919Y2879D01*
X4919Y2877D01*
X4918Y2877D01*
X4918Y2875D01*
X4917Y2875D01*
X4917Y2873D01*
X4917Y2873D01*
X4917Y2872D01*
X4916Y2872D01*
X4916Y2870D01*
X4915Y2870D01*
X4915Y2868D01*
X4914Y2868D01*
X4914Y2867D01*
X4913Y2867D01*
X4913Y2866D01*
X4912Y2866D01*
X4912Y2864D01*
X4912Y2864D01*
X4912Y2863D01*
X4911Y2863D01*
X4911Y2862D01*
X4910Y2862D01*
X4910Y2860D01*
X4909Y2860D01*
X4909Y2859D01*
X4908Y2859D01*
X4908Y2859D01*
X4908Y2859D01*
X4908Y2860D01*
X4908Y2860D01*
X4908Y2862D01*
X4909Y2862D01*
X4909Y2864D01*
X4910Y2864D01*
X4910Y2865D01*
X4911Y2865D01*
X4911Y2867D01*
X4912Y2867D01*
X4912Y2868D01*
X4912Y2868D01*
X4912Y2871D01*
X4913Y2871D01*
X4913Y2873D01*
X4914Y2873D01*
X4914Y2875D01*
X4915Y2875D01*
X4915Y2877D01*
X4916Y2877D01*
X4916Y2880D01*
X4917Y2880D01*
X4917Y2882D01*
X4917Y2882D01*
X4917Y2885D01*
X4918Y2885D01*
X4918Y2888D01*
X4919Y2888D01*
X4919Y2891D01*
X4920Y2891D01*
X4920Y2894D01*
X4921Y2894D01*
X4921Y2899D01*
X4921Y2899D01*
X4921Y2902D01*
X4922Y2902D01*
X4922Y2906D01*
X4923Y2906D01*
X4923Y2911D01*
X4924Y2911D01*
X4924Y2915D01*
X4925Y2915D01*
X4925Y2921D01*
X4926Y2921D01*
X4926Y2930D01*
X4926Y2930D01*
X4926Y2937D01*
X4927Y2937D01*
X4927Y2950D01*
X4928Y2950D01*
X4928Y3006D01*
X4927Y3006D01*
X4927Y3022D01*
X4926Y3022D01*
X4926Y3029D01*
X4927Y3029D01*
X4927Y3031D01*
X4928Y3031D01*
X4928Y3032D01*
X4929Y3032D01*
X4929Y3037D01*
X4928Y3037D01*
X4928Y3037D01*
X4927Y3037D01*
X4927Y3039D01*
X4926Y3039D01*
X4926Y3040D01*
X4926Y3040D01*
X4926Y3041D01*
X4925Y3041D01*
X4925Y3042D01*
X4924Y3042D01*
X4924Y3043D01*
X4923Y3043D01*
X4923Y3044D01*
X4922Y3044D01*
X4922Y3045D01*
X4921Y3045D01*
X4921Y3046D01*
X4921Y3046D01*
X4921Y3046D01*
X4920Y3046D01*
X4920Y3047D01*
X4919Y3047D01*
X4919Y3048D01*
X4918Y3048D01*
X4918Y3049D01*
X4917Y3049D01*
X4917Y3050D01*
X4917Y3050D01*
X4917Y3050D01*
X4916Y3050D01*
X4916Y3051D01*
X4915Y3051D01*
X4915Y3052D01*
X4914Y3052D01*
X4914Y3053D01*
X4913Y3053D01*
X4913Y3054D01*
X4912Y3054D01*
X4912Y3054D01*
X4911Y3054D01*
X4911Y3055D01*
X4910Y3055D01*
X4910Y3056D01*
X4908Y3056D01*
X4908Y3057D01*
X4908Y3057D01*
X4908Y3058D01*
X4906Y3058D01*
X4906Y3054D01*
X4907Y3054D01*
X4907Y3052D01*
X4908Y3052D01*
X4908Y3050D01*
X4908Y3050D01*
X4908Y3048D01*
X4909Y3048D01*
X4909Y3047D01*
X4910Y3047D01*
X4910Y3046D01*
X4911Y3046D01*
X4911Y3044D01*
X4912Y3044D01*
X4912Y3035D01*
X4911Y3035D01*
X4911Y3030D01*
X4910Y3030D01*
X4910Y3024D01*
X4909Y3024D01*
X4909Y3020D01*
X4908Y3020D01*
X4908Y3016D01*
X4908Y3016D01*
X4908Y3012D01*
X4907Y3012D01*
X4907Y3010D01*
X4906Y3010D01*
X4906Y3006D01*
X4905Y3006D01*
X4905Y3003D01*
X4904Y3003D01*
X4904Y3001D01*
X4903Y3001D01*
X4903Y2997D01*
X4903Y2997D01*
X4903Y2995D01*
X4902Y2995D01*
X4902Y2992D01*
X4901Y2992D01*
X4901Y2990D01*
X4900Y2990D01*
X4900Y2988D01*
X4899Y2988D01*
X4899Y2986D01*
X4899Y2986D01*
X4899Y2983D01*
X4898Y2983D01*
X4898Y2982D01*
X4897Y2982D01*
X4897Y2979D01*
X4896Y2979D01*
X4896Y2978D01*
X4895Y2978D01*
X4895Y2975D01*
X4894Y2975D01*
X4894Y2974D01*
X4894Y2974D01*
X4894Y2972D01*
X4893Y2972D01*
X4893Y2971D01*
X4891Y2971D01*
X4891Y2976D01*
X4890Y2976D01*
X4890Y2975D01*
X4889Y2975D01*
X4889Y2974D01*
X4890Y2974D01*
X4890Y2972D01*
X4889Y2972D01*
X4889Y2971D01*
X4888Y2971D01*
X4888Y2972D01*
X4887Y2972D01*
X4887Y2974D01*
X4886Y2974D01*
X4886Y2975D01*
X4886Y2975D01*
X4886Y2978D01*
X4885Y2978D01*
X4885Y2979D01*
X4884Y2979D01*
X4884Y2981D01*
X4883Y2981D01*
X4883Y2983D01*
X4882Y2983D01*
X4882Y2985D01*
X4881Y2985D01*
X4881Y2988D01*
X4881Y2988D01*
X4881Y2989D01*
X4880Y2989D01*
X4880Y2992D01*
X4879Y2992D01*
X4879Y2995D01*
X4878Y2995D01*
X4878Y2997D01*
X4877Y2997D01*
X4877Y3000D01*
X4877Y3000D01*
X4877Y3002D01*
X4876Y3002D01*
X4876Y3006D01*
X4875Y3006D01*
X4875Y3010D01*
X4874Y3010D01*
X4874Y3012D01*
X4873Y3012D01*
X4873Y3016D01*
X4872Y3016D01*
X4872Y3020D01*
X4872Y3020D01*
X4872Y3024D01*
X4871Y3024D01*
X4871Y3028D01*
X4870Y3028D01*
X4870Y3033D01*
X4869Y3033D01*
X4869Y3044D01*
X4870Y3044D01*
X4870Y3046D01*
X4871Y3046D01*
X4871Y3048D01*
X4872Y3048D01*
X4872Y3049D01*
X4872Y3049D01*
X4872Y3050D01*
X4873Y3050D01*
X4873Y3053D01*
X4874Y3053D01*
X4874Y3054D01*
X4875Y3054D01*
X4875Y3057D01*
X4872Y3057D01*
X4872Y3056D01*
X4871Y3056D01*
X4871Y3055D01*
X4869Y3055D01*
X4869Y3054D01*
X4868Y3054D01*
X4868Y3054D01*
X4868Y3054D01*
X4868Y3053D01*
X4867Y3053D01*
X4867Y3052D01*
X4865Y3052D01*
X4865Y3051D01*
X4864Y3051D01*
X4864Y3050D01*
X4863Y3050D01*
X4863Y3049D01*
X4863Y3049D01*
X4863Y3048D01*
X4862Y3048D01*
X4862Y3047D01*
X4861Y3047D01*
X4861Y3046D01*
X4860Y3046D01*
X4860Y3046D01*
X4859Y3046D01*
X4859Y3045D01*
X4859Y3045D01*
X4859Y3044D01*
X4858Y3044D01*
X4858Y3043D01*
X4857Y3043D01*
X4857Y3042D01*
X4856Y3042D01*
X4856Y3041D01*
X4855Y3041D01*
X4855Y3040D01*
X4855Y3040D01*
X4855Y3039D01*
X4854Y3039D01*
X4854Y3037D01*
X4853Y3037D01*
X4853Y3037D01*
X4852Y3037D01*
X4852Y3036D01*
X4851Y3036D01*
X4851Y3032D01*
X4852Y3032D01*
X4852Y3032D01*
X4853Y3032D01*
X4853Y3031D01*
X4854Y3031D01*
X4854Y3011D01*
X4853Y3011D01*
X4853Y2948D01*
X4854Y2948D01*
X4854Y2934D01*
X4855Y2934D01*
X4855Y2928D01*
X4855Y2928D01*
X4855Y2920D01*
X4856Y2920D01*
X4856Y2914D01*
X4857Y2914D01*
X4857Y2910D01*
X4858Y2910D01*
X4858Y2904D01*
X4859Y2904D01*
X4859Y2901D01*
X4859Y2901D01*
X4859Y2897D01*
X4860Y2897D01*
X4860Y2893D01*
X4861Y2893D01*
X4861Y2890D01*
X4862Y2890D01*
X4862Y2887D01*
X4863Y2887D01*
X4863Y2885D01*
X4863Y2885D01*
X4863Y2882D01*
X4864Y2882D01*
X4864Y2879D01*
X4865Y2879D01*
X4865Y2877D01*
X4866Y2877D01*
X4866Y2875D01*
X4867Y2875D01*
X4867Y2873D01*
X4868Y2873D01*
X4868Y2871D01*
X4868Y2871D01*
X4868Y2868D01*
X4869Y2868D01*
X4869Y2867D01*
X4870Y2867D01*
X4870Y2865D01*
X4871Y2865D01*
X4871Y2864D01*
X4872Y2864D01*
X4872Y2863D01*
X4872Y2863D01*
X4872Y2861D01*
X4873Y2861D01*
X4873Y2859D01*
X4874Y2859D01*
X4874Y2858D01*
X4872Y2858D01*
X4872Y2859D01*
X4872Y2859D01*
X4872Y2859D01*
X4871Y2859D01*
X4871Y2861D01*
X4870Y2861D01*
X4870Y2863D01*
X4869Y2863D01*
X4869Y2864D01*
X4868Y2864D01*
X4868Y2866D01*
X4868Y2866D01*
X4868Y2867D01*
X4867Y2867D01*
X4867Y2868D01*
X4866Y2868D01*
X4866Y2870D01*
X4865Y2870D01*
X4865Y2872D01*
X4864Y2872D01*
X4864Y2873D01*
X4863Y2873D01*
X4863Y2874D01*
X4863Y2874D01*
X4863Y2877D01*
X4862Y2877D01*
X4862Y2878D01*
X4861Y2878D01*
X4861Y2880D01*
X4860Y2880D01*
X4860Y2881D01*
X4859Y2881D01*
X4859Y2884D01*
X4859Y2884D01*
X4859Y2886D01*
X4858Y2886D01*
X4858Y2889D01*
X4857Y2889D01*
X4857Y2890D01*
X4856Y2890D01*
X4856Y2893D01*
X4855Y2893D01*
X4855Y2896D01*
X4855Y2896D01*
X4855Y2897D01*
X4854Y2897D01*
X4854Y2901D01*
X4853Y2901D01*
X4853Y2904D01*
X4852Y2904D01*
X4852Y2906D01*
X4851Y2906D01*
X4851Y2910D01*
X4850Y2910D01*
X4850Y2912D01*
X4850Y2912D01*
X4850Y2917D01*
X4849Y2917D01*
X4849Y2921D01*
X4848Y2921D01*
X4848Y2924D01*
X4847Y2924D01*
X4847Y2930D01*
X4846Y2930D01*
X4846Y2934D01*
X4846Y2934D01*
X4846Y2938D01*
X4845Y2938D01*
X4845Y2945D01*
X4844Y2945D01*
X4844Y2951D01*
X4843Y2951D01*
X4843Y2957D01*
X4842Y2957D01*
X4842Y2969D01*
X4841Y2969D01*
X4841Y2975D01*
X4841Y2975D01*
X4841Y2989D01*
X4840Y2989D01*
X4840Y3006D01*
X4839Y3006D01*
X4839Y3040D01*
X4840Y3040D01*
X4840Y3045D01*
X4842Y3045D01*
X4842Y3044D01*
X4845Y3044D01*
X4845Y3045D01*
X4846Y3045D01*
X4846Y3046D01*
X4846Y3046D01*
X4846Y3046D01*
X4848Y3046D01*
X4848Y3047D01*
X4849Y3047D01*
X4849Y3048D01*
X4850Y3048D01*
X4850Y3049D01*
X4850Y3049D01*
X4850Y3050D01*
X4851Y3050D01*
X4851Y3050D01*
X4853Y3050D01*
X4853Y3051D01*
X4854Y3051D01*
X4854Y3052D01*
X4855Y3052D01*
X4855Y3053D01*
X4855Y3053D01*
X4855Y3054D01*
X4856Y3054D01*
X4856Y3054D01*
X4858Y3054D01*
X4858Y3055D01*
X4859Y3055D01*
X4859Y3056D01*
X4859Y3056D01*
X4859Y3057D01*
X4860Y3057D01*
X4860Y3058D01*
X4861Y3058D01*
X4861Y3059D01*
X4862Y3059D01*
X4862Y3059D01*
X4863Y3059D01*
X4863Y3060D01*
X4863Y3060D01*
X4863Y3061D01*
X4865Y3061D01*
X4865Y3062D01*
X4866Y3062D01*
X4866Y3063D01*
X4867Y3063D01*
X4867Y3063D01*
X4868Y3063D01*
X4868Y3064D01*
X4864Y3064D01*
X4864Y3063D01*
X4855Y3063D01*
X4855Y3063D01*
X4851Y3063D01*
X4851Y3062D01*
X4849Y3062D01*
X4849Y3061D01*
X4846Y3061D01*
X4846Y3060D01*
X4845Y3060D01*
X4845Y3059D01*
X4843Y3059D01*
X4843Y3059D01*
X4842Y3059D01*
X4842Y3058D01*
X4841Y3058D01*
X4841Y3057D01*
X4840Y3057D01*
X4840Y3056D01*
X4839Y3056D01*
X4839Y3055D01*
X4838Y3055D01*
X4838Y3054D01*
X4837Y3054D01*
X4837Y3054D01*
X4837Y3054D01*
X4837Y3053D01*
X4836Y3053D01*
X4836Y3052D01*
X4834Y3052D01*
X4834Y3051D01*
X4833Y3051D01*
X4833Y3050D01*
X4832Y3050D01*
X4832Y3050D01*
X4832Y3050D01*
X4832Y3049D01*
X4831Y3049D01*
X4831Y3048D01*
X4829Y3048D01*
X4829Y3047D01*
X4828Y3047D01*
X4828Y3046D01*
X4828Y3046D01*
X4828Y3046D01*
X4827Y3046D01*
X4827Y3045D01*
X4825Y3045D01*
X4825Y3044D01*
X4824Y3044D01*
X4824Y3043D01*
X4824Y3043D01*
X4824Y3042D01*
X4823Y3042D01*
X4823Y3041D01*
X4822Y3041D01*
X4822Y3041D01*
X4820Y3041D01*
X4820Y3040D01*
X4819Y3040D01*
X4819Y3039D01*
X4819Y3039D01*
X4819Y3038D01*
X4818Y3038D01*
X4818Y3037D01*
X4817Y3037D01*
X4817Y3037D01*
X4815Y3037D01*
X4815Y3036D01*
X4815Y3036D01*
X4815Y3035D01*
X4814Y3035D01*
X4814Y3034D01*
X4813Y3034D01*
X4813Y3033D01*
X4812Y3033D01*
X4812Y3032D01*
X4810Y3032D01*
X4810Y3032D01*
X4810Y3032D01*
X4810Y3031D01*
X4809Y3031D01*
X4809Y3030D01*
X4808Y3030D01*
X4808Y3029D01*
X4807Y3029D01*
X4807Y3028D01*
X4806Y3028D01*
X4806Y3028D01*
X4806Y3028D01*
X4806Y3027D01*
X4805Y3027D01*
X4805Y3026D01*
X4804Y3026D01*
X4804Y3025D01*
X4803Y3025D01*
X4803Y3024D01*
X4801Y3024D01*
X4801Y3023D01*
X4801Y3023D01*
X4801Y3023D01*
X4800Y3023D01*
X4800Y3022D01*
X4799Y3022D01*
X4799Y3021D01*
X4798Y3021D01*
X4798Y3020D01*
X4797Y3020D01*
X4797Y3019D01*
X4797Y3019D01*
X4797Y3019D01*
X4796Y3019D01*
X4796Y3018D01*
X4795Y3018D01*
X4795Y3017D01*
X4794Y3017D01*
X4794Y3016D01*
X4793Y3016D01*
X4793Y3015D01*
X4793Y3015D01*
X4793Y3014D01*
X4792Y3014D01*
X4792Y3014D01*
X4791Y3014D01*
X4791Y3013D01*
X4790Y3013D01*
X4790Y3012D01*
X4789Y3012D01*
X4789Y3011D01*
X4788Y3011D01*
X4788Y3010D01*
X4788Y3010D01*
X4788Y3010D01*
X4787Y3010D01*
X4787Y3009D01*
X4786Y3009D01*
X4786Y2977D01*
X4787Y2977D01*
X4787Y2969D01*
X4788Y2969D01*
X4788Y2962D01*
X4788Y2962D01*
X4788Y2956D01*
X4789Y2956D01*
X4789Y2952D01*
X4790Y2952D01*
X4790Y2947D01*
X4791Y2947D01*
X4791Y2943D01*
X4792Y2943D01*
X4792Y2939D01*
X4793Y2939D01*
X4793Y2935D01*
X4793Y2935D01*
X4793Y2933D01*
X4794Y2933D01*
X4794Y2929D01*
X4795Y2929D01*
X4795Y2926D01*
X4796Y2926D01*
X4796Y2924D01*
X4797Y2924D01*
X4797Y2920D01*
X4797Y2920D01*
X4797Y2917D01*
X4798Y2917D01*
X4798Y2916D01*
X4799Y2916D01*
X4799Y2912D01*
X4800Y2912D01*
X4800Y2910D01*
X4801Y2910D01*
X4801Y2908D01*
X4801Y2908D01*
X4801Y2905D01*
X4802Y2905D01*
X4802Y2904D01*
X4803Y2904D01*
X4803Y2901D01*
X4804Y2901D01*
X4804Y2899D01*
X4805Y2899D01*
X4805Y2897D01*
X4806Y2897D01*
X4806Y2895D01*
X4805Y2895D01*
X4805Y2896D01*
X4804Y2896D01*
X4804Y2898D01*
X4803Y2898D01*
X4803Y2899D01*
X4802Y2899D01*
X4802Y2900D01*
X4801Y2900D01*
X4801Y2903D01*
X4801Y2903D01*
X4801Y2904D01*
X4800Y2904D01*
X4800Y2906D01*
X4799Y2906D01*
X4799Y2908D01*
X4798Y2908D01*
X4798Y2910D01*
X4797Y2910D01*
X4797Y2912D01*
X4797Y2912D01*
X4797Y2913D01*
X4796Y2913D01*
X4796Y2915D01*
X4795Y2915D01*
X4795Y2917D01*
X4794Y2917D01*
X4794Y2919D01*
X4793Y2919D01*
X4793Y2921D01*
X4793Y2921D01*
X4793Y2922D01*
X4792Y2922D01*
X4792Y2924D01*
X4791Y2924D01*
X4791Y2926D01*
X4790Y2926D01*
X4790Y2929D01*
X4789Y2929D01*
X4789Y2930D01*
X4788Y2930D01*
X4788Y2933D01*
X4788Y2933D01*
X4788Y2935D01*
X4787Y2935D01*
X4787Y2937D01*
X4786Y2937D01*
X4786Y2940D01*
X4785Y2940D01*
X4785Y2942D01*
X4784Y2942D01*
X4784Y2944D01*
X4784Y2944D01*
X4784Y2948D01*
X4783Y2948D01*
X4783Y2949D01*
X4782Y2949D01*
X4782Y2952D01*
X4781Y2952D01*
X4781Y2956D01*
X4780Y2956D01*
X4780Y2959D01*
X4779Y2959D01*
X4779Y2962D01*
X4779Y2962D01*
X4779Y2966D01*
X4778Y2966D01*
X4778Y2970D01*
X4777Y2970D01*
X4777Y2975D01*
X4776Y2975D01*
X4776Y2978D01*
X4775Y2978D01*
X4775Y2984D01*
X4775Y2984D01*
X4775Y2990D01*
X4774Y2990D01*
X4774Y2998D01*
X4773Y2998D01*
X4773Y3022D01*
X4775Y3022D01*
X4775Y3021D01*
X4777Y3021D01*
X4777Y3020D01*
X4779Y3020D01*
X4779Y3021D01*
X4782Y3021D01*
X4782Y3022D01*
X4784Y3022D01*
X4784Y3023D01*
X4786Y3023D01*
X4786Y3023D01*
X4787Y3023D01*
X4787Y3024D01*
X4788Y3024D01*
X4788Y3025D01*
X4789Y3025D01*
X4789Y3026D01*
X4791Y3026D01*
X4791Y3027D01*
X4792Y3027D01*
X4792Y3028D01*
X4793Y3028D01*
X4793Y3028D01*
X4794Y3028D01*
X4794Y3029D01*
X4795Y3029D01*
X4795Y3030D01*
X4796Y3030D01*
X4796Y3031D01*
X4797Y3031D01*
X4797Y3032D01*
X4798Y3032D01*
X4798Y3032D01*
X4799Y3032D01*
X4799Y3033D01*
X4800Y3033D01*
X4800Y3034D01*
X4801Y3034D01*
X4801Y3035D01*
X4802Y3035D01*
X4802Y3036D01*
X4803Y3036D01*
X4803Y3037D01*
X4805Y3037D01*
X4805Y3037D01*
X4806Y3037D01*
X4806Y3038D01*
X4806Y3038D01*
X4806Y3039D01*
X4807Y3039D01*
X4807Y3040D01*
X4809Y3040D01*
X4809Y3041D01*
X4810Y3041D01*
X4810Y3041D01*
X4810Y3041D01*
X4810Y3042D01*
X4811Y3042D01*
X4811Y3043D01*
X4813Y3043D01*
X4813Y3044D01*
X4814Y3044D01*
X4814Y3045D01*
X4815Y3045D01*
X4815Y3046D01*
X4815Y3046D01*
X4815Y3046D01*
X4817Y3046D01*
X4817Y3047D01*
X4818Y3047D01*
X4818Y3048D01*
X4819Y3048D01*
X4819Y3049D01*
X4819Y3049D01*
X4819Y3050D01*
X4820Y3050D01*
X4820Y3050D01*
X4821Y3050D01*
X4821Y3051D01*
X4822Y3051D01*
X4822Y3052D01*
X4823Y3052D01*
X4823Y3053D01*
X4824Y3053D01*
X4824Y3054D01*
X4825Y3054D01*
X4825Y3054D01*
X4826Y3054D01*
X4826Y3055D01*
X4827Y3055D01*
X4827Y3056D01*
X4828Y3056D01*
X4828Y3057D01*
X4828Y3057D01*
X4828Y3058D01*
X4829Y3058D01*
X4829Y3059D01*
X4830Y3059D01*
X4830Y3059D01*
X4831Y3059D01*
X4831Y3060D01*
X4832Y3060D01*
X4832Y3061D01*
X4832Y3061D01*
X4832Y3062D01*
X4833Y3062D01*
X4833Y3063D01*
X4834Y3063D01*
X4834Y3063D01*
X4836Y3063D01*
X4836Y3064D01*
X4837Y3064D01*
X4837Y3065D01*
X4837Y3065D01*
X4837Y3066D01*
X4838Y3066D01*
X4838Y3067D01*
X4839Y3067D01*
X4839Y3068D01*
X4840Y3068D01*
X4840Y3068D01*
X4841Y3068D01*
X4841Y3069D01*
X4841Y3069D01*
X4841Y3070D01*
X4842Y3070D01*
X4842Y3071D01*
X4845Y3071D01*
X4845Y3070D01*
X4857Y3070D01*
X4857Y3071D01*
X4863Y3071D01*
X4863Y3072D01*
X4868Y3072D01*
X4868Y3072D01*
X4868Y3072D01*
X4868Y3074D01*
X4868Y3074D01*
X4868Y3075D01*
X4867Y3075D01*
X4867Y3076D01*
X4865Y3076D01*
X4865Y3077D01*
X4863Y3077D01*
X4863Y3077D01*
X4862Y3077D01*
X4862Y3078D01*
X4859Y3078D01*
X4859Y3079D01*
X4841Y3079D01*
X4841Y3078D01*
X4836Y3078D01*
X4836Y3077D01*
X4833Y3077D01*
X4833Y3077D01*
X4829Y3077D01*
X4829Y3076D01*
X4827Y3076D01*
X4827Y3075D01*
X4824Y3075D01*
X4824Y3074D01*
X4820Y3074D01*
X4820Y3073D01*
X4819Y3073D01*
X4819Y3072D01*
X4816Y3072D01*
X4816Y3072D01*
X4814Y3072D01*
X4814Y3071D01*
X4812Y3071D01*
X4812Y3070D01*
X4810Y3070D01*
X4810Y3069D01*
X4808Y3069D01*
X4808Y3068D01*
X4806Y3068D01*
X4806Y3068D01*
X4805Y3068D01*
X4805Y3067D01*
X4804Y3067D01*
X4804Y3066D01*
X4802Y3066D01*
X4802Y3065D01*
X4801Y3065D01*
X4801Y3064D01*
X4800Y3064D01*
X4800Y3063D01*
X4798Y3063D01*
X4798Y3063D01*
X4797Y3063D01*
X4797Y3063D01*
X4795Y3063D01*
X4795Y3064D01*
X4794Y3064D01*
X4794Y3065D01*
X4793Y3065D01*
X4793Y3066D01*
X4793Y3066D01*
X4793Y3067D01*
X4792Y3067D01*
X4792Y3068D01*
X4790Y3068D01*
X4790Y3068D01*
X4789Y3068D01*
X4789Y3069D01*
X4788Y3069D01*
X4788Y3070D01*
X4788Y3070D01*
X4788Y3071D01*
X4787Y3071D01*
X4787Y3072D01*
X4786Y3072D01*
X4786Y3072D01*
X4785Y3072D01*
X4785Y3073D01*
X4784Y3073D01*
X4784Y3074D01*
X4784Y3074D01*
X4784Y3075D01*
X4783Y3075D01*
X4783Y3077D01*
X4784Y3077D01*
X4784Y3080D01*
X4784Y3080D01*
X4784Y3083D01*
X4785Y3083D01*
X4785Y3086D01*
X4786Y3086D01*
X4786Y3092D01*
X4787Y3092D01*
X4787Y3095D01*
X4788Y3095D01*
X4788Y3102D01*
X4788Y3102D01*
X4788Y3107D01*
X4789Y3107D01*
X4789Y3109D01*
X4790Y3109D01*
X4790Y3113D01*
X4791Y3113D01*
X4791Y3116D01*
X4792Y3116D01*
X4792Y3119D01*
X4793Y3119D01*
X4793Y3121D01*
X4793Y3121D01*
X4793Y3124D01*
X4794Y3124D01*
X4794Y3126D01*
X4795Y3126D01*
X4795Y3129D01*
X4796Y3129D01*
X4796Y3130D01*
X4797Y3130D01*
X4797Y3133D01*
X4797Y3133D01*
X4797Y3135D01*
X4798Y3135D01*
X4798Y3137D01*
X4799Y3137D01*
X4799Y3139D01*
X4800Y3139D01*
X4800Y3142D01*
X4801Y3142D01*
X4801Y3143D01*
X4801Y3143D01*
X4801Y3146D01*
X4802Y3146D01*
X4802Y3147D01*
X4803Y3147D01*
X4803Y3149D01*
X4804Y3149D01*
X4804Y3151D01*
X4805Y3151D01*
X4805Y3152D01*
X4806Y3152D01*
X4806Y3154D01*
X4806Y3154D01*
X4806Y3156D01*
X4807Y3156D01*
X4807Y3157D01*
X4808Y3157D01*
X4808Y3160D01*
X4809Y3160D01*
X4809Y3161D01*
X4810Y3161D01*
X4810Y3162D01*
X4810Y3162D01*
X4810Y3164D01*
X4811Y3164D01*
X4811Y3165D01*
X4812Y3165D01*
X4812Y3167D01*
X4813Y3167D01*
X4813Y3169D01*
X4814Y3169D01*
X4814Y3170D01*
X4815Y3170D01*
X4815Y3172D01*
X4815Y3172D01*
X4815Y3173D01*
X4816Y3173D01*
X4816Y3174D01*
X4817Y3174D01*
X4817Y3176D01*
X4818Y3176D01*
X4818Y3177D01*
X4819Y3177D01*
X4819Y3179D01*
X4819Y3179D01*
X4819Y3179D01*
X4820Y3179D01*
X4820Y3180D01*
X4821Y3180D01*
X4821Y3179D01*
X4820Y3179D01*
X4820Y3176D01*
X4819Y3176D01*
X4819Y3175D01*
X4819Y3175D01*
X4819Y3174D01*
X4818Y3174D01*
X4818Y3172D01*
X4817Y3172D01*
X4817Y3170D01*
X4816Y3170D01*
X4816Y3169D01*
X4815Y3169D01*
X4815Y3167D01*
X4815Y3167D01*
X4815Y3165D01*
X4814Y3165D01*
X4814Y3163D01*
X4813Y3163D01*
X4813Y3161D01*
X4812Y3161D01*
X4812Y3159D01*
X4811Y3159D01*
X4811Y3157D01*
X4810Y3157D01*
X4810Y3155D01*
X4810Y3155D01*
X4810Y3152D01*
X4809Y3152D01*
X4809Y3150D01*
X4808Y3150D01*
X4808Y3147D01*
X4807Y3147D01*
X4807Y3144D01*
X4806Y3144D01*
X4806Y3142D01*
X4806Y3142D01*
X4806Y3138D01*
X4805Y3138D01*
X4805Y3135D01*
X4804Y3135D01*
X4804Y3132D01*
X4803Y3132D01*
X4803Y3128D01*
X4802Y3128D01*
X4802Y3125D01*
X4801Y3125D01*
X4801Y3120D01*
X4801Y3120D01*
X4801Y3115D01*
X4800Y3115D01*
X4800Y3111D01*
X4799Y3111D01*
X4799Y3102D01*
X4798Y3102D01*
X4798Y3094D01*
X4797Y3094D01*
X4797Y3081D01*
X4797Y3081D01*
X4797Y3077D01*
X4797Y3077D01*
X4797Y3076D01*
X4799Y3076D01*
X4799Y3077D01*
X4803Y3077D01*
X4803Y3077D01*
X4806Y3077D01*
X4806Y3078D01*
X4810Y3078D01*
X4810Y3079D01*
X4814Y3079D01*
X4814Y3080D01*
X4816Y3080D01*
X4816Y3081D01*
X4820Y3081D01*
X4820Y3081D01*
X4823Y3081D01*
X4823Y3082D01*
X4826Y3082D01*
X4826Y3083D01*
X4830Y3083D01*
X4830Y3084D01*
X4832Y3084D01*
X4832Y3085D01*
X4836Y3085D01*
X4836Y3085D01*
X4839Y3085D01*
X4839Y3086D01*
X4841Y3086D01*
X4841Y3087D01*
X4844Y3087D01*
X4844Y3088D01*
X4846Y3088D01*
X4846Y3089D01*
X4849Y3089D01*
X4849Y3090D01*
X4854Y3090D01*
X4854Y3089D01*
X4855Y3089D01*
X4855Y3088D01*
X4858Y3088D01*
X4858Y3087D01*
X4859Y3087D01*
X4859Y3086D01*
X4860Y3086D01*
X4860Y3085D01*
X4863Y3085D01*
X4863Y3085D01*
X4864Y3085D01*
X4864Y3084D01*
X4866Y3084D01*
X4866Y3083D01*
X4869Y3083D01*
X4869Y3085D01*
X4868Y3085D01*
X4868Y3086D01*
X4868Y3086D01*
X4868Y3088D01*
X4867Y3088D01*
X4867Y3090D01*
X4866Y3090D01*
X4866Y3090D01*
X4865Y3090D01*
X4865Y3091D01*
X4864Y3091D01*
X4864Y3092D01*
X4863Y3092D01*
X4863Y3093D01*
X4863Y3093D01*
X4863Y3094D01*
X4862Y3094D01*
X4862Y3094D01*
X4833Y3094D01*
X4833Y3094D01*
X4828Y3094D01*
X4828Y3093D01*
X4826Y3093D01*
X4826Y3092D01*
X4824Y3092D01*
X4824Y3091D01*
X4824Y3091D01*
X4824Y3090D01*
X4823Y3090D01*
X4823Y3090D01*
X4821Y3090D01*
X4821Y3090D01*
X4820Y3090D01*
X4820Y3091D01*
X4819Y3091D01*
X4819Y3092D01*
X4819Y3092D01*
X4819Y3093D01*
X4818Y3093D01*
X4818Y3094D01*
X4817Y3094D01*
X4817Y3094D01*
X4816Y3094D01*
X4816Y3095D01*
X4815Y3095D01*
X4815Y3096D01*
X4815Y3096D01*
X4815Y3097D01*
X4814Y3097D01*
X4814Y3098D01*
X4813Y3098D01*
X4813Y3099D01*
X4812Y3099D01*
X4812Y3100D01*
X4813Y3100D01*
X4813Y3104D01*
X4814Y3104D01*
X4814Y3108D01*
X4815Y3108D01*
X4815Y3113D01*
X4815Y3113D01*
X4815Y3116D01*
X4816Y3116D01*
X4816Y3120D01*
X4817Y3120D01*
X4817Y3123D01*
X4818Y3123D01*
X4818Y3125D01*
X4819Y3125D01*
X4819Y3129D01*
X4819Y3129D01*
X4819Y3130D01*
X4820Y3130D01*
X4820Y3134D01*
X4821Y3134D01*
X4821Y3137D01*
X4822Y3137D01*
X4822Y3139D01*
X4823Y3139D01*
X4823Y3141D01*
X4824Y3141D01*
X4824Y3143D01*
X4824Y3143D01*
X4824Y3146D01*
X4825Y3146D01*
X4825Y3148D01*
X4826Y3148D01*
X4826Y3150D01*
X4827Y3150D01*
X4827Y3152D01*
X4828Y3152D01*
X4828Y3155D01*
X4828Y3155D01*
X4828Y3156D01*
X4829Y3156D01*
X4829Y3159D01*
X4830Y3159D01*
X4830Y3161D01*
X4831Y3161D01*
X4831Y3163D01*
X4832Y3163D01*
X4832Y3165D01*
X4832Y3165D01*
X4832Y3167D01*
X4833Y3167D01*
X4833Y3169D01*
X4834Y3169D01*
X4834Y3171D01*
X4835Y3171D01*
X4835Y3173D01*
X4836Y3173D01*
X4836Y3175D01*
X4837Y3175D01*
X4837Y3177D01*
X4837Y3177D01*
X4837Y3179D01*
X4838Y3179D01*
X4838Y3181D01*
X4839Y3181D01*
X4839Y3182D01*
X4840Y3182D01*
X4840Y3180D01*
X4840Y3179D01*
X4840Y3179D02*
G37*
D10*
X4747Y4224D02*
G03*
X4839Y4236I38J66D01*
G01*
X4837Y4347D02*
G03*
X4747Y4356I-52J-57D01*
G01*
X4917Y3460D02*
G03*
X4917Y3460I-7J0D01*
G01*
X4266Y3455D02*
G03*
X4266Y3455I-7J0D01*
G01*
X3591Y3455D02*
G03*
X3591Y3455I-7J0D01*
G01*
X4837Y4347D02*
X4840Y4343D01*
X4840Y4236D02*
X4840Y4245D01*
X4840Y4335D02*
X4840Y4343D01*
X3310Y4945D02*
X3560Y4945D01*
X3310Y4845D02*
X3310Y4945D01*
X3310Y4845D02*
X3560Y4845D01*
X3560Y4945D01*
X1414Y4323D02*
X1414Y4507D01*
X1414Y4323D02*
X1506Y4323D01*
X1506Y4507D01*
X1414Y4507D02*
X1506Y4507D01*
X1460Y4507D02*
X1460Y4557D01*
X1460Y4273D02*
X1460Y4323D01*
X1414Y4373D02*
X1506Y4373D01*
X1664Y4323D02*
X1664Y4507D01*
X1664Y4323D02*
X1756Y4323D01*
X1756Y4507D01*
X1664Y4507D02*
X1756Y4507D01*
X1710Y4507D02*
X1710Y4557D01*
X1710Y4273D02*
X1710Y4323D01*
X1664Y4373D02*
X1756Y4373D01*
X4961Y3758D02*
X4961Y3942D01*
X4869Y3942D02*
X4961Y3942D01*
X4869Y3758D02*
X4869Y3942D01*
X4869Y3758D02*
X4961Y3758D01*
X4915Y3708D02*
X4915Y3758D01*
X4915Y3942D02*
X4915Y3992D01*
X4869Y3892D02*
X4961Y3892D01*
X4301Y3758D02*
X4301Y3942D01*
X4209Y3942D02*
X4301Y3942D01*
X4209Y3758D02*
X4209Y3942D01*
X4209Y3758D02*
X4301Y3758D01*
X4255Y3708D02*
X4255Y3758D01*
X4255Y3942D02*
X4255Y3992D01*
X4209Y3892D02*
X4301Y3892D01*
X3631Y3768D02*
X3631Y3952D01*
X3539Y3952D02*
X3631Y3952D01*
X3539Y3768D02*
X3539Y3952D01*
X3539Y3768D02*
X3631Y3768D01*
X3585Y3718D02*
X3585Y3768D01*
X3585Y3952D02*
X3585Y4002D01*
X3539Y3902D02*
X3631Y3902D01*
X1164Y4323D02*
X1164Y4507D01*
X1164Y4323D02*
X1256Y4323D01*
X1256Y4507D01*
X1164Y4507D02*
X1256Y4507D01*
X1210Y4507D02*
X1210Y4557D01*
X1210Y4273D02*
X1210Y4323D01*
X1164Y4373D02*
X1256Y4373D01*
X4447Y4400D02*
X4447Y4810D01*
X4266Y4400D02*
X4447Y4400D01*
X4266Y4400D02*
X4266Y4810D01*
X4266Y4810D02*
X4447Y4810D01*
X4428Y4400D02*
X4428Y4810D01*
X4447Y4810D02*
X5138Y4810D01*
X4447Y4400D02*
X5138Y4400D01*
X5138Y4810D01*
X4045Y4440D02*
X4045Y4485D01*
X4015Y4440D02*
X4075Y4440D01*
X4015Y4420D02*
X4075Y4420D01*
X4045Y4375D02*
X4045Y4420D01*
X3735Y4375D02*
X3735Y4420D01*
X3705Y4420D02*
X3765Y4420D01*
X3705Y4440D02*
X3765Y4440D01*
X3735Y4440D02*
X3735Y4485D01*
D11*
X3584Y4465D02*
G03*
X3584Y4465I-246J0D01*
G01*
X3512Y4248D02*
X3590Y4248D01*
X3551Y4209D02*
X3551Y4288D01*
D12*
X4297Y4784D02*
G03*
X4297Y4784I-5J0D01*
G01*
D13*
X1710Y3705D02*
X1760Y3705D01*
X1705Y3680D02*
X1705Y3705D01*
X1705Y3945D02*
X1705Y3965D01*
X1760Y3705D02*
X1760Y3945D01*
X1645Y3945D02*
X1760Y3945D01*
X1645Y3705D02*
X1645Y3945D01*
X1645Y3705D02*
X1710Y3705D01*
X1460Y3950D02*
X1510Y3950D01*
X1515Y3950D02*
X1515Y3975D01*
X1515Y3690D02*
X1515Y3710D01*
X1460Y3710D02*
X1460Y3950D01*
X1460Y3710D02*
X1575Y3710D01*
X1575Y3950D01*
X1510Y3950D02*
X1575Y3950D01*
X1445Y4795D02*
X1445Y4915D01*
X1035Y4795D02*
X1445Y4795D01*
X1035Y4795D02*
X1035Y4915D01*
X1445Y4915D01*
X1945Y4795D02*
X1945Y4915D01*
X1535Y4795D02*
X1945Y4795D01*
X1535Y4795D02*
X1535Y4915D01*
X1945Y4915D01*
X2030Y2575D02*
X2780Y2575D01*
X2780Y2650D01*
X2780Y2750D02*
X2780Y2800D01*
X2955Y2800D01*
X2780Y2650D02*
X2780Y2750D01*
X2030Y2575D02*
X2030Y2800D01*
X1855Y2800D02*
X2030Y2800D01*
X1855Y2800D02*
X1855Y4725D01*
X2955Y2800D02*
X2955Y4725D01*
X3205Y4800D02*
X3205Y4920D01*
X2795Y4800D02*
X3205Y4800D01*
X2795Y4800D02*
X2795Y4920D01*
X3205Y4920D01*
X3515Y4960D02*
X3515Y4990D01*
X3500Y4975D02*
X3530Y4975D01*
X3340Y4975D02*
X3370Y4975D01*
X4020Y4765D02*
X4020Y4795D01*
X3670Y4765D02*
X4020Y4765D01*
X3670Y4765D02*
X3670Y4795D01*
X4020Y4920D02*
X4020Y4960D01*
X3945Y4960D02*
X4020Y4960D01*
X3675Y4920D02*
X3675Y4960D01*
X3745Y4960D01*
X1385Y4665D02*
X1535Y4665D01*
X1385Y4165D02*
X1535Y4165D01*
X1385Y4165D02*
X1385Y4665D01*
X1535Y4165D02*
X1535Y4665D01*
X1095Y3455D02*
X1765Y3455D01*
X1765Y3561D01*
X1095Y3561D02*
X1765Y3561D01*
X1095Y3455D02*
X1095Y3561D01*
X3920Y3620D02*
X4080Y3620D01*
X4080Y3930D01*
X3920Y3930D02*
X4080Y3930D01*
X3920Y3620D02*
X3920Y3930D01*
X4570Y3620D02*
X4730Y3620D01*
X4730Y3930D01*
X4570Y3930D02*
X4730Y3930D01*
X4570Y3620D02*
X4570Y3930D01*
X3250Y3620D02*
X3410Y3620D01*
X3410Y3930D01*
X3250Y3930D02*
X3410Y3930D01*
X3250Y3620D02*
X3250Y3930D01*
X1635Y4665D02*
X1785Y4665D01*
X1635Y4165D02*
X1785Y4165D01*
X1635Y4165D02*
X1635Y4665D01*
X1785Y4165D02*
X1785Y4665D01*
X4840Y3600D02*
X4990Y3600D01*
X4840Y4100D02*
X4990Y4100D01*
X4990Y3600D02*
X4990Y4100D01*
X4840Y3600D02*
X4840Y4100D01*
X4180Y3600D02*
X4330Y3600D01*
X4180Y4100D02*
X4330Y4100D01*
X4330Y3600D02*
X4330Y4100D01*
X4180Y3600D02*
X4180Y4100D01*
X3510Y3610D02*
X3660Y3610D01*
X3510Y4110D02*
X3660Y4110D01*
X3660Y3610D02*
X3660Y4110D01*
X3510Y3610D02*
X3510Y4110D01*
X1135Y4665D02*
X1285Y4665D01*
X1135Y4165D02*
X1285Y4165D01*
X1135Y4165D02*
X1135Y4665D01*
X1285Y4165D02*
X1285Y4665D01*
X4495Y3129D02*
X4495Y3154D01*
X4495Y3404D02*
X4545Y3404D01*
X4545Y3154D02*
X4545Y3404D01*
X4495Y3404D02*
X4495Y3429D01*
X4445Y3404D02*
X4495Y3404D01*
X4445Y3154D02*
X4545Y3154D01*
X4445Y3154D02*
X4445Y3404D01*
X3835Y3129D02*
X3835Y3154D01*
X3835Y3404D02*
X3885Y3404D01*
X3885Y3154D02*
X3885Y3404D01*
X3835Y3404D02*
X3835Y3429D01*
X3785Y3404D02*
X3835Y3404D01*
X3785Y3154D02*
X3885Y3154D01*
X3785Y3154D02*
X3785Y3404D01*
X4905Y3430D02*
X4930Y3430D01*
X4930Y3365D02*
X4930Y3430D01*
X4620Y3365D02*
X4930Y3365D01*
X4620Y3365D02*
X4620Y3430D01*
X4620Y3480D01*
X4930Y3480D01*
X4930Y3430D02*
X4930Y3480D01*
X4620Y3430D02*
X4645Y3430D01*
X4905Y3390D02*
X4930Y3365D01*
X4875Y3390D02*
X4900Y3365D01*
X4845Y3390D02*
X4870Y3365D01*
X4815Y3390D02*
X4840Y3365D01*
X4785Y3390D02*
X4810Y3365D01*
X4755Y3390D02*
X4780Y3365D01*
X4725Y3390D02*
X4750Y3365D01*
X4695Y3390D02*
X4720Y3365D01*
X4660Y3390D02*
X4685Y3365D01*
X4630Y3390D02*
X4655Y3365D01*
X4620Y3390D02*
X4930Y3390D01*
X4254Y3425D02*
X4279Y3425D01*
X4279Y3360D02*
X4279Y3425D01*
X3969Y3360D02*
X4279Y3360D01*
X3969Y3360D02*
X3969Y3425D01*
X3969Y3475D01*
X4279Y3475D01*
X4279Y3425D02*
X4279Y3475D01*
X3969Y3425D02*
X3994Y3425D01*
X4254Y3385D02*
X4279Y3360D01*
X4224Y3385D02*
X4249Y3360D01*
X4194Y3385D02*
X4219Y3360D01*
X4164Y3385D02*
X4189Y3360D01*
X4134Y3385D02*
X4159Y3360D01*
X4104Y3385D02*
X4129Y3360D01*
X4074Y3385D02*
X4099Y3360D01*
X4044Y3385D02*
X4069Y3360D01*
X4009Y3385D02*
X4034Y3360D01*
X3979Y3385D02*
X4004Y3360D01*
X3969Y3385D02*
X4279Y3385D01*
X3579Y3425D02*
X3604Y3425D01*
X3604Y3360D02*
X3604Y3425D01*
X3294Y3360D02*
X3604Y3360D01*
X3294Y3360D02*
X3294Y3425D01*
X3294Y3475D01*
X3604Y3475D01*
X3604Y3425D02*
X3604Y3475D01*
X3294Y3425D02*
X3319Y3425D01*
X3579Y3385D02*
X3604Y3360D01*
X3549Y3385D02*
X3574Y3360D01*
X3519Y3385D02*
X3544Y3360D01*
X3489Y3385D02*
X3514Y3360D01*
X3459Y3385D02*
X3484Y3360D01*
X3429Y3385D02*
X3454Y3360D01*
X3399Y3385D02*
X3424Y3360D01*
X3369Y3385D02*
X3394Y3360D01*
X3334Y3385D02*
X3359Y3360D01*
X3304Y3385D02*
X3329Y3360D01*
X3294Y3385D02*
X3604Y3385D01*
X3160Y3129D02*
X3160Y3154D01*
X3160Y3404D02*
X3210Y3404D01*
X3210Y3154D02*
X3210Y3404D01*
X3160Y3404D02*
X3160Y3429D01*
X3110Y3404D02*
X3160Y3404D01*
X3110Y3154D02*
X3210Y3154D01*
X3110Y3154D02*
X3110Y3404D01*
X3865Y4370D02*
X3865Y4475D01*
X3935Y4370D02*
X3935Y4475D01*
X3695Y2985D02*
X3685Y2995D01*
X3665Y2995D01*
X3655Y2985D01*
X3655Y2975D01*
X3665Y2965D01*
X3685Y2965D01*
X3695Y2955D01*
X3695Y2945D01*
X3685Y2935D01*
X3665Y2935D01*
X3655Y2945D01*
X3715Y2915D02*
X3715Y2975D01*
X3745Y2975D01*
X3755Y2965D01*
X3755Y2945D01*
X3745Y2935D01*
X3715Y2935D01*
X3775Y2935D02*
X3795Y2935D01*
X3785Y2935D01*
X3785Y2975D01*
X3775Y2975D01*
X3865Y2995D02*
X3865Y2935D01*
X3835Y2935D01*
X3825Y2945D01*
X3825Y2965D01*
X3835Y2975D01*
X3865Y2975D01*
X3915Y2935D02*
X3895Y2935D01*
X3885Y2945D01*
X3885Y2965D01*
X3895Y2975D01*
X3915Y2975D01*
X3925Y2965D01*
X3925Y2955D01*
X3885Y2955D01*
X3945Y2975D02*
X3945Y2945D01*
X3955Y2935D01*
X3985Y2935D01*
X3985Y2925D01*
X3975Y2915D01*
X3965Y2915D01*
X3985Y2935D02*
X3985Y2975D01*
X4105Y2985D02*
X4095Y2995D01*
X4075Y2995D01*
X4065Y2985D01*
X4065Y2975D01*
X4075Y2965D01*
X4095Y2965D01*
X4105Y2955D01*
X4105Y2945D01*
X4095Y2935D01*
X4075Y2935D01*
X4065Y2945D01*
X4155Y2935D02*
X4135Y2935D01*
X4125Y2945D01*
X4125Y2965D01*
X4135Y2975D01*
X4155Y2975D01*
X4165Y2965D01*
X4165Y2955D01*
X4125Y2955D01*
X4185Y2935D02*
X4185Y2975D01*
X4215Y2975D01*
X4225Y2965D01*
X4225Y2935D01*
X4245Y2935D02*
X4275Y2935D01*
X4285Y2945D01*
X4275Y2955D01*
X4255Y2955D01*
X4245Y2965D01*
X4255Y2975D01*
X4285Y2975D01*
X4335Y2935D02*
X4315Y2935D01*
X4305Y2945D01*
X4305Y2965D01*
X4315Y2975D01*
X4335Y2975D01*
X4345Y2965D01*
X4345Y2955D01*
X4305Y2955D01*
X4425Y2995D02*
X4425Y2955D01*
X4445Y2935D01*
X4465Y2955D01*
X4465Y2995D01*
X4485Y2935D02*
X4505Y2935D01*
X4495Y2935D01*
X4495Y2995D01*
X4485Y2985D01*
X4535Y2935D02*
X4535Y2945D01*
X4545Y2945D01*
X4545Y2935D01*
X4535Y2935D01*
X4585Y2985D02*
X4595Y2995D01*
X4615Y2995D01*
X4625Y2985D01*
X4625Y2945D01*
X4615Y2935D01*
X4595Y2935D01*
X4585Y2945D01*
X4585Y2985D01*
X1080Y4990D02*
X1060Y4990D01*
X1070Y4990D01*
X1070Y4940D01*
X1060Y4930D01*
X1050Y4930D01*
X1040Y4940D01*
X1140Y4990D02*
X1120Y4980D01*
X1100Y4960D01*
X1100Y4940D01*
X1110Y4930D01*
X1130Y4930D01*
X1140Y4940D01*
X1140Y4950D01*
X1130Y4960D01*
X1100Y4960D01*
X1615Y4990D02*
X1595Y4990D01*
X1605Y4990D01*
X1605Y4940D01*
X1595Y4930D01*
X1585Y4930D01*
X1575Y4940D01*
X1675Y4990D02*
X1635Y4990D01*
X1635Y4960D01*
X1655Y4970D01*
X1665Y4970D01*
X1675Y4960D01*
X1675Y4940D01*
X1665Y4930D01*
X1645Y4930D01*
X1635Y4940D01*
X2690Y4895D02*
X2670Y4895D01*
X2680Y4895D01*
X2680Y4845D01*
X2670Y4835D01*
X2660Y4835D01*
X2650Y4845D01*
X2740Y4835D02*
X2740Y4895D01*
X2710Y4865D01*
X2750Y4865D01*
X4845Y4195D02*
X4845Y4135D01*
X4875Y4135D01*
X4885Y4145D01*
X4885Y4185D01*
X4875Y4195D01*
X4845Y4195D01*
X4945Y4195D02*
X4925Y4185D01*
X4905Y4165D01*
X4905Y4145D01*
X4915Y4135D01*
X4935Y4135D01*
X4945Y4145D01*
X4945Y4155D01*
X4935Y4165D01*
X4905Y4165D01*
X4185Y4195D02*
X4185Y4135D01*
X4215Y4135D01*
X4225Y4145D01*
X4225Y4185D01*
X4215Y4195D01*
X4185Y4195D01*
X4285Y4195D02*
X4245Y4195D01*
X4245Y4165D01*
X4265Y4175D01*
X4275Y4175D01*
X4285Y4165D01*
X4285Y4145D01*
X4275Y4135D01*
X4255Y4135D01*
X4245Y4145D01*
X3515Y4205D02*
X3515Y4145D01*
X3545Y4145D01*
X3555Y4155D01*
X3555Y4195D01*
X3545Y4205D01*
X3515Y4205D01*
X3605Y4145D02*
X3605Y4205D01*
X3575Y4175D01*
X3615Y4175D01*
X1140Y4760D02*
X1140Y4700D01*
X1170Y4700D01*
X1180Y4710D01*
X1180Y4750D01*
X1170Y4760D01*
X1140Y4760D01*
X1200Y4750D02*
X1210Y4760D01*
X1230Y4760D01*
X1240Y4750D01*
X1240Y4740D01*
X1230Y4730D01*
X1220Y4730D01*
X1230Y4730D01*
X1240Y4720D01*
X1240Y4710D01*
X1230Y4700D01*
X1210Y4700D01*
X1200Y4710D01*
X1410Y4760D02*
X1410Y4700D01*
X1440Y4700D01*
X1450Y4710D01*
X1450Y4750D01*
X1440Y4760D01*
X1410Y4760D01*
X1510Y4700D02*
X1470Y4700D01*
X1510Y4740D01*
X1510Y4750D01*
X1500Y4760D01*
X1480Y4760D01*
X1470Y4750D01*
X1640Y4760D02*
X1640Y4700D01*
X1670Y4700D01*
X1680Y4710D01*
X1680Y4750D01*
X1670Y4760D01*
X1640Y4760D01*
X1700Y4700D02*
X1720Y4700D01*
X1710Y4700D01*
X1710Y4760D01*
X1700Y4750D01*
X4272Y4904D02*
X4272Y4864D01*
X4292Y4844D01*
X4312Y4864D01*
X4312Y4904D01*
X4332Y4844D02*
X4332Y4904D01*
X4362Y4904D01*
X4372Y4894D01*
X4372Y4874D01*
X4362Y4864D01*
X4332Y4864D01*
X4352Y4864D02*
X4372Y4844D01*
X4392Y4844D02*
X4412Y4844D01*
X4402Y4844D01*
X4402Y4904D01*
X4392Y4894D01*
X2315Y4825D02*
X2315Y4775D01*
X2325Y4765D01*
X2345Y4765D01*
X2355Y4775D01*
X2355Y4825D01*
X2375Y4765D02*
X2395Y4765D01*
X2385Y4765D01*
X2385Y4825D01*
X2375Y4815D01*
X4095Y4960D02*
X4085Y4970D01*
X4065Y4970D01*
X4055Y4960D01*
X4055Y4950D01*
X4065Y4940D01*
X4085Y4940D01*
X4095Y4930D01*
X4095Y4920D01*
X4085Y4910D01*
X4065Y4910D01*
X4055Y4920D01*
X4115Y4970D02*
X4115Y4910D01*
X4135Y4930D01*
X4155Y4910D01*
X4155Y4970D01*
X4215Y4910D02*
X4175Y4910D01*
X4215Y4950D01*
X4215Y4960D01*
X4205Y4970D01*
X4185Y4970D01*
X4175Y4960D01*
X1162Y4116D02*
X1152Y4126D01*
X1132Y4126D01*
X1122Y4116D01*
X1122Y4106D01*
X1132Y4096D01*
X1152Y4096D01*
X1162Y4086D01*
X1162Y4076D01*
X1152Y4066D01*
X1132Y4066D01*
X1122Y4076D01*
X1182Y4126D02*
X1182Y4066D01*
X1202Y4086D01*
X1222Y4066D01*
X1222Y4126D01*
X1242Y4066D02*
X1262Y4066D01*
X1252Y4066D01*
X1252Y4126D01*
X1242Y4116D01*
X4130Y4404D02*
X4130Y4464D01*
X4160Y4464D01*
X4170Y4454D01*
X4170Y4434D01*
X4160Y4424D01*
X4130Y4424D01*
X4150Y4424D02*
X4170Y4404D01*
X4190Y4464D02*
X4230Y4464D01*
X4230Y4454D01*
X4190Y4414D01*
X4190Y4404D01*
X4429Y3560D02*
X4429Y3620D01*
X4459Y3620D01*
X4469Y3610D01*
X4469Y3590D01*
X4459Y3580D01*
X4429Y3580D01*
X4449Y3580D02*
X4469Y3560D01*
X4529Y3620D02*
X4509Y3610D01*
X4489Y3590D01*
X4489Y3570D01*
X4499Y3560D01*
X4519Y3560D01*
X4529Y3570D01*
X4529Y3580D01*
X4519Y3590D01*
X4489Y3590D01*
X3769Y3560D02*
X3769Y3620D01*
X3799Y3620D01*
X3809Y3610D01*
X3809Y3590D01*
X3799Y3580D01*
X3769Y3580D01*
X3789Y3580D02*
X3809Y3560D01*
X3869Y3620D02*
X3829Y3620D01*
X3829Y3590D01*
X3849Y3600D01*
X3859Y3600D01*
X3869Y3590D01*
X3869Y3570D01*
X3859Y3560D01*
X3839Y3560D01*
X3829Y3570D01*
X3094Y3560D02*
X3094Y3620D01*
X3124Y3620D01*
X3134Y3610D01*
X3134Y3590D01*
X3124Y3580D01*
X3094Y3580D01*
X3114Y3580D02*
X3134Y3560D01*
X3184Y3560D02*
X3184Y3620D01*
X3154Y3590D01*
X3194Y3590D01*
X1100Y3596D02*
X1100Y3656D01*
X1130Y3656D01*
X1140Y3646D01*
X1140Y3626D01*
X1130Y3616D01*
X1100Y3616D01*
X1120Y3616D02*
X1140Y3596D01*
X1160Y3646D02*
X1170Y3656D01*
X1190Y3656D01*
X1200Y3646D01*
X1200Y3636D01*
X1190Y3626D01*
X1180Y3626D01*
X1190Y3626D01*
X1200Y3616D01*
X1200Y3606D01*
X1190Y3596D01*
X1170Y3596D01*
X1160Y3606D01*
X1640Y4090D02*
X1640Y4150D01*
X1670Y4150D01*
X1680Y4140D01*
X1680Y4120D01*
X1670Y4110D01*
X1640Y4110D01*
X1660Y4110D02*
X1680Y4090D01*
X1740Y4090D02*
X1700Y4090D01*
X1740Y4130D01*
X1740Y4140D01*
X1730Y4150D01*
X1710Y4150D01*
X1700Y4140D01*
X1490Y4090D02*
X1490Y4150D01*
X1520Y4150D01*
X1530Y4140D01*
X1530Y4120D01*
X1520Y4110D01*
X1490Y4110D01*
X1510Y4110D02*
X1530Y4090D01*
X1550Y4090D02*
X1570Y4090D01*
X1560Y4090D01*
X1560Y4150D01*
X1550Y4140D01*
X4665Y3525D02*
X4665Y3565D01*
X4655Y3575D01*
X4635Y3575D01*
X4625Y3565D01*
X4625Y3525D01*
X4635Y3515D01*
X4655Y3515D01*
X4645Y3535D02*
X4665Y3515D01*
X4655Y3515D02*
X4665Y3525D01*
X4685Y3565D02*
X4695Y3575D01*
X4715Y3575D01*
X4725Y3565D01*
X4725Y3555D01*
X4715Y3545D01*
X4705Y3545D01*
X4715Y3545D01*
X4725Y3535D01*
X4725Y3525D01*
X4715Y3515D01*
X4695Y3515D01*
X4685Y3525D01*
X4014Y3520D02*
X4014Y3560D01*
X4004Y3570D01*
X3984Y3570D01*
X3974Y3560D01*
X3974Y3520D01*
X3984Y3510D01*
X4004Y3510D01*
X3994Y3530D02*
X4014Y3510D01*
X4004Y3510D02*
X4014Y3520D01*
X4074Y3510D02*
X4034Y3510D01*
X4074Y3550D01*
X4074Y3560D01*
X4064Y3570D01*
X4044Y3570D01*
X4034Y3560D01*
X3339Y3520D02*
X3339Y3560D01*
X3329Y3570D01*
X3309Y3570D01*
X3299Y3560D01*
X3299Y3520D01*
X3309Y3510D01*
X3329Y3510D01*
X3319Y3530D02*
X3339Y3510D01*
X3329Y3510D02*
X3339Y3520D01*
X3359Y3510D02*
X3379Y3510D01*
X3369Y3510D01*
X3369Y3570D01*
X3359Y3560D01*
X4615Y4025D02*
X4595Y4025D01*
X4605Y4025D01*
X4605Y3975D01*
X4595Y3965D01*
X4585Y3965D01*
X4575Y3975D01*
X4635Y4015D02*
X4645Y4025D01*
X4665Y4025D01*
X4675Y4015D01*
X4675Y4005D01*
X4665Y3995D01*
X4655Y3995D01*
X4665Y3995D01*
X4675Y3985D01*
X4675Y3975D01*
X4665Y3965D01*
X4645Y3965D01*
X4635Y3975D01*
X3965Y4025D02*
X3945Y4025D01*
X3955Y4025D01*
X3955Y3975D01*
X3945Y3965D01*
X3935Y3965D01*
X3925Y3975D01*
X4025Y3965D02*
X3985Y3965D01*
X4025Y4005D01*
X4025Y4015D01*
X4015Y4025D01*
X3995Y4025D01*
X3985Y4015D01*
X3295Y4025D02*
X3275Y4025D01*
X3285Y4025D01*
X3285Y3975D01*
X3275Y3965D01*
X3265Y3965D01*
X3255Y3975D01*
X3315Y3965D02*
X3335Y3965D01*
X3325Y3965D01*
X3325Y4025D01*
X3315Y4015D01*
X4900Y4345D02*
X4900Y4285D01*
X4930Y4285D01*
X4940Y4295D01*
X4940Y4335D01*
X4930Y4345D01*
X4900Y4345D01*
X4960Y4345D02*
X5000Y4345D01*
X5000Y4335D01*
X4960Y4295D01*
X4960Y4285D01*
X3060Y4695D02*
X3050Y4705D01*
X3030Y4705D01*
X3020Y4695D01*
X3020Y4655D01*
X3030Y4645D01*
X3050Y4645D01*
X3060Y4655D01*
X3110Y4645D02*
X3110Y4705D01*
X3080Y4675D01*
X3120Y4675D01*
X3910Y4643D02*
X3900Y4653D01*
X3880Y4653D01*
X3870Y4643D01*
X3870Y4603D01*
X3880Y4593D01*
X3900Y4593D01*
X3910Y4603D01*
X3930Y4643D02*
X3940Y4653D01*
X3960Y4653D01*
X3970Y4643D01*
X3970Y4633D01*
X3960Y4623D01*
X3950Y4623D01*
X3960Y4623D01*
X3970Y4613D01*
X3970Y4603D01*
X3960Y4593D01*
X3940Y4593D01*
X3930Y4603D01*
X4043Y4652D02*
X4033Y4662D01*
X4013Y4662D01*
X4003Y4652D01*
X4003Y4612D01*
X4013Y4602D01*
X4033Y4602D01*
X4043Y4612D01*
X4103Y4602D02*
X4063Y4602D01*
X4103Y4642D01*
X4103Y4652D01*
X4093Y4662D01*
X4073Y4662D01*
X4063Y4652D01*
X3733Y4652D02*
X3723Y4662D01*
X3703Y4662D01*
X3693Y4652D01*
X3693Y4612D01*
X3703Y4602D01*
X3723Y4602D01*
X3733Y4612D01*
X3753Y4602D02*
X3773Y4602D01*
X3763Y4602D01*
X3763Y4662D01*
X3753Y4652D01*
X3385Y4825D02*
X3385Y4765D01*
X3415Y4765D01*
X3425Y4775D01*
X3425Y4785D01*
X3415Y4795D01*
X3385Y4795D01*
X3415Y4795D01*
X3425Y4805D01*
X3425Y4815D01*
X3415Y4825D01*
X3385Y4825D01*
X3445Y4825D02*
X3485Y4825D01*
X3465Y4825D01*
X3465Y4765D01*
X3505Y4765D02*
X3525Y4765D01*
X3515Y4765D01*
X3515Y4825D01*
X3505Y4815D01*
D14*
X4568Y4320D02*
X4577Y4320D01*
X4202Y4320D02*
X4213Y4320D01*
X4568Y4270D02*
X4568Y4320D01*
X4568Y4370D01*
X4213Y4370D02*
X4568Y4370D01*
X4213Y4320D02*
X4213Y4370D01*
X4213Y4270D02*
X4213Y4320D01*
X4213Y4270D02*
X4568Y4270D01*
X3658Y2833D02*
X3658Y2873D01*
X3685Y2833D01*
X3685Y2873D01*
X3698Y2833D02*
X3711Y2833D01*
X3705Y2833D01*
X3705Y2860D01*
X3698Y2860D01*
X3731Y2833D02*
X3751Y2833D01*
X3758Y2840D01*
X3751Y2847D01*
X3738Y2847D01*
X3731Y2853D01*
X3738Y2860D01*
X3758Y2860D01*
X3798Y2860D02*
X3778Y2860D01*
X3771Y2853D01*
X3771Y2840D01*
X3778Y2833D01*
X3798Y2833D01*
X3811Y2873D02*
X3811Y2833D01*
X3811Y2853D01*
X3818Y2860D01*
X3831Y2860D01*
X3838Y2853D01*
X3838Y2833D01*
X3858Y2860D02*
X3871Y2860D01*
X3878Y2853D01*
X3878Y2833D01*
X3858Y2833D01*
X3851Y2840D01*
X3858Y2847D01*
X3878Y2847D01*
X3891Y2860D02*
X3891Y2840D01*
X3898Y2833D01*
X3918Y2833D01*
X3918Y2827D01*
X3911Y2820D01*
X3905Y2820D01*
X3918Y2833D02*
X3918Y2860D01*
X3998Y2873D02*
X3985Y2873D01*
X3991Y2873D01*
X3991Y2840D01*
X3985Y2833D01*
X3978Y2833D01*
X3971Y2840D01*
X4018Y2833D02*
X4031Y2833D01*
X4038Y2840D01*
X4038Y2853D01*
X4031Y2860D01*
X4018Y2860D01*
X4011Y2853D01*
X4011Y2840D01*
X4018Y2833D01*
X4051Y2833D02*
X4071Y2833D01*
X4078Y2840D01*
X4071Y2847D01*
X4058Y2847D01*
X4051Y2853D01*
X4058Y2860D01*
X4078Y2860D01*
X4091Y2873D02*
X4091Y2833D01*
X4091Y2853D01*
X4098Y2860D01*
X4111Y2860D01*
X4118Y2853D01*
X4118Y2833D01*
X4131Y2833D02*
X4145Y2833D01*
X4138Y2833D01*
X4138Y2860D01*
X4131Y2860D01*
M02*
