M48
;Layer_Color=6321
;FILE_FORMAT=2:3
INCH,TZ
;TYPE=PLATED
T1F00S00C0.024
T2F00S00C0.030
T3F00S00C0.031
T5F00S00C0.032
T6F00S00C0.033
T7F00S00C0.035
T8F00S00C0.036
T9F00S00C0.039
T10F00S00C0.040
T11F00S00C0.045
%
T01
X4155Y4320
X4625Y4320
T02
X1127Y3510
X1733Y3510
X3900Y4325
X3900Y4525
X4735Y4290
X4835Y4290
T03
X3160Y3079
X3835Y3079
X4495Y3079
X1255Y3795
X1255Y3992
X3160Y3485
X3835Y3485
X4495Y3485
X4045Y4330
X4045Y4530
X3735Y4530
X3735Y4330
T05
X3765Y4860
X3845Y4860
X3925Y4860
T06
X3360Y4895
X3510Y4895
T07
X3355Y3425
X3449Y3425
X3543Y3425
X4030Y3425
X4124Y3425
X4218Y3425
X4681Y3430
X4775Y3430
X4869Y3430
X3050Y4860
X2950Y4860
X2850Y4860
X1790Y4855
X1690Y4855
X1590Y4855
X1290Y4855
X1190Y4855
X1090Y4855
T08
X1515Y3630
X1515Y4035
X1705Y4025
X1705Y3620
X3150Y4860
X1890Y4855
X1390Y4855
T09
X3315Y3727
X3315Y3825
X3985Y3825
X3985Y3727
X4635Y3727
X4635Y3825
T10
X1210Y4215
X1460Y4215
X1460Y4615
X1210Y4615
X1710Y4615
X1710Y4215
X3240Y4465
X3437Y4465
X3585Y4060
X3585Y3660
X4255Y3650
X4255Y4050
X4335Y4505
X4335Y4605
X4915Y4050
X4915Y3650
X4335Y4705
T11
X1905Y2850
X1905Y2950
X1905Y3050
X2905Y3050
X2905Y2950
X2905Y2850
X2905Y3150
X2905Y3250
X2905Y3350
X2905Y3450
X2905Y3550
X2905Y3650
X2905Y3750
X2905Y3850
X2905Y3950
X2905Y4050
X2905Y4150
X2905Y4250
X1905Y4250
X1905Y4150
X1905Y4050
X1905Y3950
X1905Y3850
X1905Y3750
X1905Y3650
X1905Y3550
X1905Y3450
X1905Y3350
X1905Y3250
X1905Y3150
M30
